<mxfile host="Electron" agent="Mozilla/5.0 (Macintosh; Intel Mac OS X 10_15_7) AppleWebKit/537.36 (KHTML, like Gecko) draw.io/28.1.2 Chrome/138.0.7204.243 Electron/37.4.0 Safari/537.36" version="28.1.2" pages="2">
  <diagram name="complete" id="mQL5t7dV3Cso5gXMw9Hf">
    <mxGraphModel dx="1131" dy="770" grid="1" gridSize="10" guides="1" tooltips="1" connect="1" arrows="1" fold="1" page="1" pageScale="1" pageWidth="827" pageHeight="1169" math="0" shadow="0">
      <root>
        <mxCell id="0" />
        <mxCell id="1" parent="0" />
        <mxCell id="xsmb6HBjrAarEIHEj4cX-8" value="" style="rounded=0;whiteSpace=wrap;html=1;fillColor=none;strokeColor=light-dark(#7b42bc, #ededed);" parent="1" vertex="1">
          <mxGeometry x="40" y="290" width="780" height="550" as="geometry" />
        </mxCell>
        <mxCell id="gsF9Bx1qEcpegV5IB1y0-44" style="edgeStyle=orthogonalEdgeStyle;rounded=0;orthogonalLoop=1;jettySize=auto;html=1;entryX=0.5;entryY=1;entryDx=0;entryDy=0;" parent="1" source="gsF9Bx1qEcpegV5IB1y0-42" edge="1">
          <mxGeometry relative="1" as="geometry">
            <mxPoint x="482.0050000000001" y="540.0000000000002" as="targetPoint" />
          </mxGeometry>
        </mxCell>
        <mxCell id="gsF9Bx1qEcpegV5IB1y0-3" value="" style="rounded=0;whiteSpace=wrap;html=1;fillColor=none;strokeColor=light-dark(#7b42bc, #ededed);" parent="1" vertex="1">
          <mxGeometry x="160" y="310.06" width="610" height="110" as="geometry" />
        </mxCell>
        <mxCell id="gsF9Bx1qEcpegV5IB1y0-8" style="edgeStyle=orthogonalEdgeStyle;rounded=0;orthogonalLoop=1;jettySize=auto;html=1;" parent="1" source="xsmb6HBjrAarEIHEj4cX-1" target="gsF9Bx1qEcpegV5IB1y0-6" edge="1">
          <mxGeometry relative="1" as="geometry" />
        </mxCell>
        <mxCell id="gsF9Bx1qEcpegV5IB1y0-14" style="edgeStyle=orthogonalEdgeStyle;rounded=0;orthogonalLoop=1;jettySize=auto;html=1;" parent="1" source="xsmb6HBjrAarEIHEj4cX-1" target="gsF9Bx1qEcpegV5IB1y0-12" edge="1">
          <mxGeometry relative="1" as="geometry" />
        </mxCell>
        <mxCell id="gsF9Bx1qEcpegV5IB1y0-17" style="edgeStyle=orthogonalEdgeStyle;rounded=0;orthogonalLoop=1;jettySize=auto;html=1;" parent="1" source="xsmb6HBjrAarEIHEj4cX-1" target="gsF9Bx1qEcpegV5IB1y0-15" edge="1">
          <mxGeometry relative="1" as="geometry" />
        </mxCell>
        <mxCell id="xsmb6HBjrAarEIHEj4cX-1" value="" style="dashed=0;outlineConnect=0;html=1;align=center;labelPosition=center;verticalLabelPosition=bottom;verticalAlign=top;shape=mxgraph.weblogos.github" parent="1" vertex="1">
          <mxGeometry x="190.5" y="129" width="40" height="40" as="geometry" />
        </mxCell>
        <mxCell id="xsmb6HBjrAarEIHEj4cX-5" value="GitHub repo for VPC module" style="text;html=1;align=center;verticalAlign=middle;whiteSpace=wrap;rounded=0;" parent="1" vertex="1">
          <mxGeometry x="168.12" y="169" width="84.75" height="30" as="geometry" />
        </mxCell>
        <mxCell id="xsmb6HBjrAarEIHEj4cX-10" value="TF Organization" style="text;html=1;align=center;verticalAlign=middle;whiteSpace=wrap;rounded=0;" parent="1" vertex="1">
          <mxGeometry x="58" y="290" width="92" height="20" as="geometry" />
        </mxCell>
        <mxCell id="xsmb6HBjrAarEIHEj4cX-11" value="" style="rounded=0;whiteSpace=wrap;html=1;fillColor=none;strokeColor=light-dark(#7b42bc, #ededed);" parent="1" vertex="1">
          <mxGeometry x="247.87" y="440" width="522.13" height="120" as="geometry" />
        </mxCell>
        <mxCell id="vs3_8eWJ0pFxoTamfPCQ-16" style="edgeStyle=orthogonalEdgeStyle;rounded=0;orthogonalLoop=1;jettySize=auto;html=1;entryX=0;entryY=0.5;entryDx=0;entryDy=0;" parent="1" source="xsmb6HBjrAarEIHEj4cX-12" target="vs3_8eWJ0pFxoTamfPCQ-15" edge="1">
          <mxGeometry relative="1" as="geometry">
            <Array as="points">
              <mxPoint x="90" y="495" />
            </Array>
          </mxGeometry>
        </mxCell>
        <mxCell id="gsF9Bx1qEcpegV5IB1y0-38" style="edgeStyle=orthogonalEdgeStyle;rounded=0;orthogonalLoop=1;jettySize=auto;html=1;entryX=0;entryY=0.5;entryDx=0;entryDy=0;jumpStyle=arc;" parent="1" source="xsmb6HBjrAarEIHEj4cX-12" target="gsF9Bx1qEcpegV5IB1y0-28" edge="1">
          <mxGeometry relative="1" as="geometry">
            <Array as="points">
              <mxPoint x="90" y="430" />
              <mxPoint x="360" y="430" />
              <mxPoint x="360" y="495" />
            </Array>
          </mxGeometry>
        </mxCell>
        <mxCell id="gsF9Bx1qEcpegV5IB1y0-39" style="edgeStyle=orthogonalEdgeStyle;rounded=0;orthogonalLoop=1;jettySize=auto;html=1;entryX=0;entryY=0.5;entryDx=0;entryDy=0;" parent="1" source="xsmb6HBjrAarEIHEj4cX-12" target="gsF9Bx1qEcpegV5IB1y0-33" edge="1">
          <mxGeometry relative="1" as="geometry">
            <Array as="points">
              <mxPoint x="90" y="430" />
              <mxPoint x="570" y="430" />
              <mxPoint x="570" y="495" />
            </Array>
          </mxGeometry>
        </mxCell>
        <mxCell id="xsmb6HBjrAarEIHEj4cX-12" value="GitHub OAuth Client" style="text;html=1;align=center;verticalAlign=middle;whiteSpace=wrap;rounded=0;" parent="1" vertex="1">
          <mxGeometry x="50" y="387.86" width="80" height="30" as="geometry" />
        </mxCell>
        <mxCell id="xsmb6HBjrAarEIHEj4cX-15" value="TF Project" style="text;html=1;align=center;verticalAlign=middle;whiteSpace=wrap;rounded=0;" parent="1" vertex="1">
          <mxGeometry x="266.87" y="440" width="63.13" height="20" as="geometry" />
        </mxCell>
        <mxCell id="xsmb6HBjrAarEIHEj4cX-17" value="Release v1.0.0" style="text;html=1;align=center;verticalAlign=middle;whiteSpace=wrap;rounded=0;" parent="1" vertex="1">
          <mxGeometry x="257.87" y="387.86" width="80" height="30" as="geometry" />
        </mxCell>
        <mxCell id="TStTHGaZPPmebfxb5bF6-15" style="edgeStyle=orthogonalEdgeStyle;rounded=0;orthogonalLoop=1;jettySize=auto;html=1;entryX=0.5;entryY=1;entryDx=0;entryDy=0;" parent="1" source="I730hue6tYaH45TsT1U1-1" target="Tgccn6_HPFxsa1T3Rneq-8" edge="1">
          <mxGeometry relative="1" as="geometry">
            <mxPoint x="110" y="666.71" as="targetPoint" />
          </mxGeometry>
        </mxCell>
        <mxCell id="TStTHGaZPPmebfxb5bF6-16" value="Role ARN" style="edgeLabel;html=1;align=center;verticalAlign=middle;resizable=0;points=[];" parent="TStTHGaZPPmebfxb5bF6-15" vertex="1" connectable="0">
          <mxGeometry x="-0.228" relative="1" as="geometry">
            <mxPoint y="-27" as="offset" />
          </mxGeometry>
        </mxCell>
        <mxCell id="I730hue6tYaH45TsT1U1-10" style="edgeStyle=orthogonalEdgeStyle;rounded=0;orthogonalLoop=1;jettySize=auto;html=1;" parent="1" source="I730hue6tYaH45TsT1U1-8" target="xsmb6HBjrAarEIHEj4cX-1" edge="1">
          <mxGeometry relative="1" as="geometry">
            <Array as="points">
              <mxPoint x="211" y="79" />
              <mxPoint x="211" y="79" />
            </Array>
          </mxGeometry>
        </mxCell>
        <mxCell id="I730hue6tYaH45TsT1U1-8" value="main.tf" style="rounded=0;whiteSpace=wrap;html=1;" parent="1" vertex="1">
          <mxGeometry x="175.5" y="80" width="70" height="30" as="geometry" />
        </mxCell>
        <mxCell id="Tgccn6_HPFxsa1T3Rneq-5" value="Workspace 1.0.0" style="text;html=1;align=center;verticalAlign=middle;whiteSpace=wrap;rounded=0;" parent="1" vertex="1">
          <mxGeometry x="252.87" y="520.14" width="97.13" height="19.86" as="geometry" />
        </mxCell>
        <mxCell id="Tgccn6_HPFxsa1T3Rneq-8" value="TF Variable set OIDC vars" style="text;html=1;align=center;verticalAlign=middle;whiteSpace=wrap;rounded=0;" parent="1" vertex="1">
          <mxGeometry x="71" y="552.7300000000001" width="80" height="30" as="geometry" />
        </mxCell>
        <mxCell id="gsF9Bx1qEcpegV5IB1y0-41" style="edgeStyle=orthogonalEdgeStyle;rounded=0;orthogonalLoop=1;jettySize=auto;html=1;entryX=0.5;entryY=1;entryDx=0;entryDy=0;" parent="1" source="TStTHGaZPPmebfxb5bF6-2" target="Tgccn6_HPFxsa1T3Rneq-5" edge="1">
          <mxGeometry relative="1" as="geometry" />
        </mxCell>
        <mxCell id="TStTHGaZPPmebfxb5bF6-2" value="" style="dashed=0;outlineConnect=0;html=1;align=center;labelPosition=center;verticalLabelPosition=bottom;verticalAlign=top;shape=mxgraph.weblogos.github" parent="1" vertex="1">
          <mxGeometry x="281.43" y="848.4799999999999" width="40" height="40" as="geometry" />
        </mxCell>
        <mxCell id="TStTHGaZPPmebfxb5bF6-5" value="GitHub repo 1.0.0" style="text;html=1;align=center;verticalAlign=middle;whiteSpace=wrap;rounded=0;" parent="1" vertex="1">
          <mxGeometry x="272.32" y="888.48" width="58.24" height="30" as="geometry" />
        </mxCell>
        <mxCell id="vs3_8eWJ0pFxoTamfPCQ-3" value="" style="shape=image;verticalLabelPosition=bottom;verticalAlign=top;imageAspect=0;aspect=fixed;image=data:image/svg+xml,PHN2ZyB4bWxucz0iaHR0cDovL3d3dy53My5vcmcvMjAwMC9zdmciIHZpZXdCb3g9IjAgNy41IDUwIDU3IiBoZWlnaHQ9IjU3IiB3aWR0aD0iNTAiIGlkPSJMb2dvcyI+PGRlZnM+PHN0eWxlPi5jbHMtMXtmaWxsOiM3YjQyYmM7ZmlsbC1ydWxlOmV2ZW5vZGQ7c3Ryb2tlLXdpZHRoOjBweDt9PC9zdHlsZT48L2RlZnM+PHBhdGggZD0iTTE3LjMsMTcuNWwxNS41LDl2MThsLTE1LjUtOXYtMThaIiBjbGFzcz0iY2xzLTEiLz48cGF0aCBkPSJNMzQuNSwyNi41djE4bDE1LjUtOXYtMThsLTE1LjUsOVoiIGNsYXNzPSJjbHMtMSIvPjxwYXRoIGQ9Ik0wLDcuNXYxOGwxNS41LDl2LTE4TDAsNy41WiIgY2xhc3M9ImNscy0xIi8+PHBhdGggZD0iTTE3LjMsNTUuNWwxNS41LDl2LTE4bC0xNS41LTl2MThaIiBjbGFzcz0iY2xzLTEiLz48L3N2Zz4=;" parent="1" vertex="1">
          <mxGeometry x="40" y="290" width="17.54" height="20" as="geometry" />
        </mxCell>
        <mxCell id="gsF9Bx1qEcpegV5IB1y0-11" style="edgeStyle=orthogonalEdgeStyle;rounded=0;orthogonalLoop=1;jettySize=auto;html=1;entryX=0.5;entryY=1;entryDx=0;entryDy=0;" parent="1" source="vs3_8eWJ0pFxoTamfPCQ-4" target="gsF9Bx1qEcpegV5IB1y0-7" edge="1">
          <mxGeometry relative="1" as="geometry" />
        </mxCell>
        <mxCell id="vs3_8eWJ0pFxoTamfPCQ-4" value="" style="shape=image;verticalLabelPosition=bottom;verticalAlign=top;imageAspect=0;aspect=fixed;image=data:image/svg+xml,PHN2ZyB4bWxucz0iaHR0cDovL3d3dy53My5vcmcvMjAwMC9zdmciIHZpZXdCb3g9IjAgNy41IDUwIDU3IiBoZWlnaHQ9IjU3IiB3aWR0aD0iNTAiIGlkPSJMb2dvcyI+PGRlZnM+PHN0eWxlPi5jbHMtMXtmaWxsOiM3YjQyYmM7ZmlsbC1ydWxlOmV2ZW5vZGQ7c3Ryb2tlLXdpZHRoOjBweDt9PC9zdHlsZT48L2RlZnM+PHBhdGggZD0iTTE3LjMsMTcuNWwxNS41LDl2MThsLTE1LjUtOXYtMThaIiBjbGFzcz0iY2xzLTEiLz48cGF0aCBkPSJNMzQuNSwyNi41djE4bDE1LjUtOXYtMThsLTE1LjUsOVoiIGNsYXNzPSJjbHMtMSIvPjxwYXRoIGQ9Ik0wLDcuNXYxOGwxNS41LDl2LTE4TDAsNy41WiIgY2xhc3M9ImNscy0xIi8+PHBhdGggZD0iTTE3LjMsNTUuNWwxNS41LDl2LTE4bC0xNS41LTl2MThaIiBjbGFzcz0iY2xzLTEiLz48L3N2Zz4=;" parent="1" vertex="1">
          <mxGeometry x="277.87" y="342.26" width="40" height="45.6" as="geometry" />
        </mxCell>
        <mxCell id="vs3_8eWJ0pFxoTamfPCQ-11" style="edgeStyle=orthogonalEdgeStyle;rounded=0;orthogonalLoop=1;jettySize=auto;html=1;entryX=0;entryY=0.5;entryDx=0;entryDy=0;" parent="1" source="vs3_8eWJ0pFxoTamfPCQ-9" target="gsF9Bx1qEcpegV5IB1y0-3" edge="1">
          <mxGeometry relative="1" as="geometry">
            <mxPoint x="160" y="365" as="targetPoint" />
          </mxGeometry>
        </mxCell>
        <mxCell id="vs3_8eWJ0pFxoTamfPCQ-9" value="" style="shape=image;verticalLabelPosition=bottom;verticalAlign=top;imageAspect=0;aspect=fixed;image=data:image/svg+xml,PHN2ZyB4bWxucz0iaHR0cDovL3d3dy53My5vcmcvMjAwMC9zdmciIHZpZXdCb3g9IjAgNy41IDUwIDU3IiBoZWlnaHQ9IjU3IiB3aWR0aD0iNTAiIGlkPSJMb2dvcyI+PGRlZnM+PHN0eWxlPi5jbHMtMXtmaWxsOiM3YjQyYmM7ZmlsbC1ydWxlOmV2ZW5vZGQ7c3Ryb2tlLXdpZHRoOjBweDt9PC9zdHlsZT48L2RlZnM+PHBhdGggZD0iTTE3LjMsMTcuNWwxNS41LDl2MThsLTE1LjUtOXYtMThaIiBjbGFzcz0iY2xzLTEiLz48cGF0aCBkPSJNMzQuNSwyNi41djE4bDE1LjUtOXYtMThsLTE1LjUsOVoiIGNsYXNzPSJjbHMtMSIvPjxwYXRoIGQ9Ik0wLDcuNXYxOGwxNS41LDl2LTE4TDAsNy41WiIgY2xhc3M9ImNscy0xIi8+PHBhdGggZD0iTTE3LjMsNTUuNWwxNS41LDl2LTE4bC0xNS41LTl2MThaIiBjbGFzcz0iY2xzLTEiLz48L3N2Zz4=;" parent="1" vertex="1">
          <mxGeometry x="70.5" y="342.26" width="40" height="45.6" as="geometry" />
        </mxCell>
        <mxCell id="vs3_8eWJ0pFxoTamfPCQ-14" value="" style="shape=image;verticalLabelPosition=bottom;verticalAlign=top;imageAspect=0;aspect=fixed;image=data:image/svg+xml,PHN2ZyB4bWxucz0iaHR0cDovL3d3dy53My5vcmcvMjAwMC9zdmciIHZpZXdCb3g9IjAgNy41IDUwIDU3IiBoZWlnaHQ9IjU3IiB3aWR0aD0iNTAiIGlkPSJMb2dvcyI+PGRlZnM+PHN0eWxlPi5jbHMtMXtmaWxsOiM3YjQyYmM7ZmlsbC1ydWxlOmV2ZW5vZGQ7c3Ryb2tlLXdpZHRoOjBweDt9PC9zdHlsZT48L2RlZnM+PHBhdGggZD0iTTE3LjMsMTcuNWwxNS41LDl2MThsLTE1LjUtOXYtMThaIiBjbGFzcz0iY2xzLTEiLz48cGF0aCBkPSJNMzQuNSwyNi41djE4bDE1LjUtOXYtMThsLTE1LjUsOVoiIGNsYXNzPSJjbHMtMSIvPjxwYXRoIGQ9Ik0wLDcuNXYxOGwxNS41LDl2LTE4TDAsNy41WiIgY2xhc3M9ImNscy0xIi8+PHBhdGggZD0iTTE3LjMsNTUuNWwxNS41LDl2LTE4bC0xNS41LTl2MThaIiBjbGFzcz0iY2xzLTEiLz48L3N2Zz4=;" parent="1" vertex="1">
          <mxGeometry x="247.87" y="440" width="17.54" height="20" as="geometry" />
        </mxCell>
        <mxCell id="vs3_8eWJ0pFxoTamfPCQ-15" value="" style="shape=image;verticalLabelPosition=bottom;verticalAlign=top;imageAspect=0;aspect=fixed;image=data:image/svg+xml,PHN2ZyB4bWxucz0iaHR0cDovL3d3dy53My5vcmcvMjAwMC9zdmciIHZpZXdCb3g9IjAgNy41IDUwIDU3IiBoZWlnaHQ9IjU3IiB3aWR0aD0iNTAiIGlkPSJMb2dvcyI+PGRlZnM+PHN0eWxlPi5jbHMtMXtmaWxsOiM3YjQyYmM7ZmlsbC1ydWxlOmV2ZW5vZGQ7c3Ryb2tlLXdpZHRoOjBweDt9PC9zdHlsZT48L2RlZnM+PHBhdGggZD0iTTE3LjMsMTcuNWwxNS41LDl2MThsLTE1LjUtOXYtMThaIiBjbGFzcz0iY2xzLTEiLz48cGF0aCBkPSJNMzQuNSwyNi41djE4bDE1LjUtOXYtMThsLTE1LjUsOVoiIGNsYXNzPSJjbHMtMSIvPjxwYXRoIGQ9Ik0wLDcuNXYxOGwxNS41LDl2LTE4TDAsNy41WiIgY2xhc3M9ImNscy0xIi8+PHBhdGggZD0iTTE3LjMsNTUuNWwxNS41LDl2LTE4bC0xNS41LTl2MThaIiBjbGFzcz0iY2xzLTEiLz48L3N2Zz4=;" parent="1" vertex="1">
          <mxGeometry x="277.87" y="472.2" width="40" height="45.6" as="geometry" />
        </mxCell>
        <mxCell id="vs3_8eWJ0pFxoTamfPCQ-17" style="edgeStyle=orthogonalEdgeStyle;rounded=0;orthogonalLoop=1;jettySize=auto;html=1;entryX=0.5;entryY=1;entryDx=0;entryDy=0;exitX=0.5;exitY=0;exitDx=0;exitDy=0;jumpStyle=arc;" parent="1" source="vs3_8eWJ0pFxoTamfPCQ-15" target="xsmb6HBjrAarEIHEj4cX-17" edge="1">
          <mxGeometry relative="1" as="geometry">
            <mxPoint x="210" y="480" as="sourcePoint" />
            <mxPoint x="280" y="567" as="targetPoint" />
            <Array as="points">
              <mxPoint x="298" y="460" />
              <mxPoint x="298" y="460" />
            </Array>
          </mxGeometry>
        </mxCell>
        <mxCell id="gsF9Bx1qEcpegV5IB1y0-48" style="edgeStyle=orthogonalEdgeStyle;rounded=0;orthogonalLoop=1;jettySize=auto;html=1;entryX=0;entryY=0.75;entryDx=0;entryDy=0;jumpStyle=arc;" parent="1" source="vs3_8eWJ0pFxoTamfPCQ-20" target="xsmb6HBjrAarEIHEj4cX-11" edge="1">
          <mxGeometry relative="1" as="geometry" />
        </mxCell>
        <mxCell id="vs3_8eWJ0pFxoTamfPCQ-20" value="" style="shape=image;verticalLabelPosition=bottom;verticalAlign=top;imageAspect=0;aspect=fixed;image=data:image/svg+xml,PHN2ZyB4bWxucz0iaHR0cDovL3d3dy53My5vcmcvMjAwMC9zdmciIHZpZXdCb3g9IjAgNy41IDUwIDU3IiBoZWlnaHQ9IjU3IiB3aWR0aD0iNTAiIGlkPSJMb2dvcyI+PGRlZnM+PHN0eWxlPi5jbHMtMXtmaWxsOiM3YjQyYmM7ZmlsbC1ydWxlOmV2ZW5vZGQ7c3Ryb2tlLXdpZHRoOjBweDt9PC9zdHlsZT48L2RlZnM+PHBhdGggZD0iTTE3LjMsMTcuNWwxNS41LDl2MThsLTE1LjUtOXYtMThaIiBjbGFzcz0iY2xzLTEiLz48cGF0aCBkPSJNMzQuNSwyNi41djE4bDE1LjUtOXYtMThsLTE1LjUsOVoiIGNsYXNzPSJjbHMtMSIvPjxwYXRoIGQ9Ik0wLDcuNXYxOGwxNS41LDl2LTE4TDAsNy41WiIgY2xhc3M9ImNscy0xIi8+PHBhdGggZD0iTTE3LjMsNTUuNWwxNS41LDl2LTE4bC0xNS41LTl2MThaIiBjbGFzcz0iY2xzLTEiLz48L3N2Zz4=;" parent="1" vertex="1">
          <mxGeometry x="90" y="507.13" width="40" height="45.6" as="geometry" />
        </mxCell>
        <mxCell id="gsF9Bx1qEcpegV5IB1y0-9" style="edgeStyle=orthogonalEdgeStyle;rounded=0;orthogonalLoop=1;jettySize=auto;html=1;entryX=0.5;entryY=1;entryDx=0;entryDy=0;" parent="1" source="gsF9Bx1qEcpegV5IB1y0-3" target="xsmb6HBjrAarEIHEj4cX-5" edge="1">
          <mxGeometry relative="1" as="geometry">
            <Array as="points">
              <mxPoint x="210" y="270" />
              <mxPoint x="210" y="270" />
            </Array>
          </mxGeometry>
        </mxCell>
        <mxCell id="gsF9Bx1qEcpegV5IB1y0-10" value="VCS Integration" style="edgeLabel;html=1;align=center;verticalAlign=middle;resizable=0;points=[];" parent="gsF9Bx1qEcpegV5IB1y0-9" vertex="1" connectable="0">
          <mxGeometry x="-0.0797" y="1" relative="1" as="geometry">
            <mxPoint as="offset" />
          </mxGeometry>
        </mxCell>
        <mxCell id="gsF9Bx1qEcpegV5IB1y0-4" value="TF Registry Module" style="text;html=1;align=center;verticalAlign=middle;whiteSpace=wrap;rounded=0;" parent="1" vertex="1">
          <mxGeometry x="177.54" y="310" width="111" height="20" as="geometry" />
        </mxCell>
        <mxCell id="gsF9Bx1qEcpegV5IB1y0-5" value="" style="shape=image;verticalLabelPosition=bottom;verticalAlign=top;imageAspect=0;aspect=fixed;image=data:image/svg+xml,PHN2ZyB4bWxucz0iaHR0cDovL3d3dy53My5vcmcvMjAwMC9zdmciIHZpZXdCb3g9IjAgNy41IDUwIDU3IiBoZWlnaHQ9IjU3IiB3aWR0aD0iNTAiIGlkPSJMb2dvcyI+PGRlZnM+PHN0eWxlPi5jbHMtMXtmaWxsOiM3YjQyYmM7ZmlsbC1ydWxlOmV2ZW5vZGQ7c3Ryb2tlLXdpZHRoOjBweDt9PC9zdHlsZT48L2RlZnM+PHBhdGggZD0iTTE3LjMsMTcuNWwxNS41LDl2MThsLTE1LjUtOXYtMThaIiBjbGFzcz0iY2xzLTEiLz48cGF0aCBkPSJNMzQuNSwyNi41djE4bDE1LjUtOXYtMThsLTE1LjUsOVoiIGNsYXNzPSJjbHMtMSIvPjxwYXRoIGQ9Ik0wLDcuNXYxOGwxNS41LDl2LTE4TDAsNy41WiIgY2xhc3M9ImNscy0xIi8+PHBhdGggZD0iTTE3LjMsNTUuNWwxNS41LDl2LTE4bC0xNS41LTl2MThaIiBjbGFzcz0iY2xzLTEiLz48L3N2Zz4=;" parent="1" vertex="1">
          <mxGeometry x="160" y="310.06" width="17.54" height="20" as="geometry" />
        </mxCell>
        <mxCell id="gsF9Bx1qEcpegV5IB1y0-6" value="" style="dashed=0;outlineConnect=0;html=1;align=center;labelPosition=center;verticalLabelPosition=bottom;verticalAlign=top;shape=mxgraph.weblogos.github" parent="1" vertex="1">
          <mxGeometry x="277.87" y="199" width="40" height="40" as="geometry" />
        </mxCell>
        <mxCell id="gsF9Bx1qEcpegV5IB1y0-7" value="Release v1.0.0" style="text;html=1;align=center;verticalAlign=middle;whiteSpace=wrap;rounded=0;" parent="1" vertex="1">
          <mxGeometry x="275.37" y="239" width="45" height="30" as="geometry" />
        </mxCell>
        <mxCell id="gsF9Bx1qEcpegV5IB1y0-12" value="" style="dashed=0;outlineConnect=0;html=1;align=center;labelPosition=center;verticalLabelPosition=bottom;verticalAlign=top;shape=mxgraph.weblogos.github" parent="1" vertex="1">
          <mxGeometry x="462.5" y="199" width="40" height="40" as="geometry" />
        </mxCell>
        <mxCell id="gsF9Bx1qEcpegV5IB1y0-13" value="Release v1.1.0" style="text;html=1;align=center;verticalAlign=middle;whiteSpace=wrap;rounded=0;" parent="1" vertex="1">
          <mxGeometry x="460" y="239" width="45" height="30" as="geometry" />
        </mxCell>
        <mxCell id="gsF9Bx1qEcpegV5IB1y0-15" value="" style="dashed=0;outlineConnect=0;html=1;align=center;labelPosition=center;verticalLabelPosition=bottom;verticalAlign=top;shape=mxgraph.weblogos.github" parent="1" vertex="1">
          <mxGeometry x="648.74" y="199.8" width="40" height="40" as="geometry" />
        </mxCell>
        <mxCell id="gsF9Bx1qEcpegV5IB1y0-16" value="Release v2.0.0" style="text;html=1;align=center;verticalAlign=middle;whiteSpace=wrap;rounded=0;" parent="1" vertex="1">
          <mxGeometry x="646.24" y="239.8" width="45" height="30" as="geometry" />
        </mxCell>
        <mxCell id="gsF9Bx1qEcpegV5IB1y0-18" value="Release v1.1.0" style="text;html=1;align=center;verticalAlign=middle;whiteSpace=wrap;rounded=0;" parent="1" vertex="1">
          <mxGeometry x="442.5" y="387.86" width="80" height="30" as="geometry" />
        </mxCell>
        <mxCell id="gsF9Bx1qEcpegV5IB1y0-20" style="edgeStyle=orthogonalEdgeStyle;rounded=0;orthogonalLoop=1;jettySize=auto;html=1;entryX=0.5;entryY=1;entryDx=0;entryDy=0;" parent="1" source="gsF9Bx1qEcpegV5IB1y0-19" target="gsF9Bx1qEcpegV5IB1y0-13" edge="1">
          <mxGeometry relative="1" as="geometry" />
        </mxCell>
        <mxCell id="gsF9Bx1qEcpegV5IB1y0-19" value="" style="shape=image;verticalLabelPosition=bottom;verticalAlign=top;imageAspect=0;aspect=fixed;image=data:image/svg+xml,PHN2ZyB4bWxucz0iaHR0cDovL3d3dy53My5vcmcvMjAwMC9zdmciIHZpZXdCb3g9IjAgNy41IDUwIDU3IiBoZWlnaHQ9IjU3IiB3aWR0aD0iNTAiIGlkPSJMb2dvcyI+PGRlZnM+PHN0eWxlPi5jbHMtMXtmaWxsOiM3YjQyYmM7ZmlsbC1ydWxlOmV2ZW5vZGQ7c3Ryb2tlLXdpZHRoOjBweDt9PC9zdHlsZT48L2RlZnM+PHBhdGggZD0iTTE3LjMsMTcuNWwxNS41LDl2MThsLTE1LjUtOXYtMThaIiBjbGFzcz0iY2xzLTEiLz48cGF0aCBkPSJNMzQuNSwyNi41djE4bDE1LjUtOXYtMThsLTE1LjUsOVoiIGNsYXNzPSJjbHMtMSIvPjxwYXRoIGQ9Ik0wLDcuNXYxOGwxNS41LDl2LTE4TDAsNy41WiIgY2xhc3M9ImNscy0xIi8+PHBhdGggZD0iTTE3LjMsNTUuNWwxNS41LDl2LTE4bC0xNS41LTl2MThaIiBjbGFzcz0iY2xzLTEiLz48L3N2Zz4=;" parent="1" vertex="1">
          <mxGeometry x="462.5" y="342.26" width="40" height="45.6" as="geometry" />
        </mxCell>
        <mxCell id="gsF9Bx1qEcpegV5IB1y0-21" value="Release v2.0.0" style="text;html=1;align=center;verticalAlign=middle;whiteSpace=wrap;rounded=0;" parent="1" vertex="1">
          <mxGeometry x="628.74" y="388.66" width="80" height="30" as="geometry" />
        </mxCell>
        <mxCell id="gsF9Bx1qEcpegV5IB1y0-23" style="edgeStyle=orthogonalEdgeStyle;rounded=0;orthogonalLoop=1;jettySize=auto;html=1;entryX=0.5;entryY=1;entryDx=0;entryDy=0;" parent="1" source="gsF9Bx1qEcpegV5IB1y0-22" target="gsF9Bx1qEcpegV5IB1y0-16" edge="1">
          <mxGeometry relative="1" as="geometry" />
        </mxCell>
        <mxCell id="gsF9Bx1qEcpegV5IB1y0-22" value="" style="shape=image;verticalLabelPosition=bottom;verticalAlign=top;imageAspect=0;aspect=fixed;image=data:image/svg+xml,PHN2ZyB4bWxucz0iaHR0cDovL3d3dy53My5vcmcvMjAwMC9zdmciIHZpZXdCb3g9IjAgNy41IDUwIDU3IiBoZWlnaHQ9IjU3IiB3aWR0aD0iNTAiIGlkPSJMb2dvcyI+PGRlZnM+PHN0eWxlPi5jbHMtMXtmaWxsOiM3YjQyYmM7ZmlsbC1ydWxlOmV2ZW5vZGQ7c3Ryb2tlLXdpZHRoOjBweDt9PC9zdHlsZT48L2RlZnM+PHBhdGggZD0iTTE3LjMsMTcuNWwxNS41LDl2MThsLTE1LjUtOXYtMThaIiBjbGFzcz0iY2xzLTEiLz48cGF0aCBkPSJNMzQuNSwyNi41djE4bDE1LjUtOXYtMThsLTE1LjUsOVoiIGNsYXNzPSJjbHMtMSIvPjxwYXRoIGQ9Ik0wLDcuNXYxOGwxNS41LDl2LTE4TDAsNy41WiIgY2xhc3M9ImNscy0xIi8+PHBhdGggZD0iTTE3LjMsNTUuNWwxNS41LDl2LTE4bC0xNS41LTl2MThaIiBjbGFzcz0iY2xzLTEiLz48L3N2Zz4=;" parent="1" vertex="1">
          <mxGeometry x="648.74" y="343.06" width="40" height="45.6" as="geometry" />
        </mxCell>
        <mxCell id="gsF9Bx1qEcpegV5IB1y0-26" value="Workspace 1.1.0" style="text;html=1;align=center;verticalAlign=middle;whiteSpace=wrap;rounded=0;" parent="1" vertex="1">
          <mxGeometry x="435.01" y="519.86" width="94.99" height="20.14" as="geometry" />
        </mxCell>
        <mxCell id="gsF9Bx1qEcpegV5IB1y0-28" value="" style="shape=image;verticalLabelPosition=bottom;verticalAlign=top;imageAspect=0;aspect=fixed;image=data:image/svg+xml,PHN2ZyB4bWxucz0iaHR0cDovL3d3dy53My5vcmcvMjAwMC9zdmciIHZpZXdCb3g9IjAgNy41IDUwIDU3IiBoZWlnaHQ9IjU3IiB3aWR0aD0iNTAiIGlkPSJMb2dvcyI+PGRlZnM+PHN0eWxlPi5jbHMtMXtmaWxsOiM3YjQyYmM7ZmlsbC1ydWxlOmV2ZW5vZGQ7c3Ryb2tlLXdpZHRoOjBweDt9PC9zdHlsZT48L2RlZnM+PHBhdGggZD0iTTE3LjMsMTcuNWwxNS41LDl2MThsLTE1LjUtOXYtMThaIiBjbGFzcz0iY2xzLTEiLz48cGF0aCBkPSJNMzQuNSwyNi41djE4bDE1LjUtOXYtMThsLTE1LjUsOVoiIGNsYXNzPSJjbHMtMSIvPjxwYXRoIGQ9Ik0wLDcuNXYxOGwxNS41LDl2LTE4TDAsNy41WiIgY2xhc3M9ImNscy0xIi8+PHBhdGggZD0iTTE3LjMsNTUuNWwxNS41LDl2LTE4bC0xNS41LTl2MThaIiBjbGFzcz0iY2xzLTEiLz48L3N2Zz4=;" parent="1" vertex="1">
          <mxGeometry x="462.51" y="472.20000000000005" width="40" height="45.6" as="geometry" />
        </mxCell>
        <mxCell id="gsF9Bx1qEcpegV5IB1y0-31" value="Workspace 2.0.0" style="text;html=1;align=center;verticalAlign=middle;whiteSpace=wrap;rounded=0;" parent="1" vertex="1">
          <mxGeometry x="620" y="520.9399999999999" width="97.5" height="19.86" as="geometry" />
        </mxCell>
        <mxCell id="gsF9Bx1qEcpegV5IB1y0-37" style="edgeStyle=orthogonalEdgeStyle;rounded=0;orthogonalLoop=1;jettySize=auto;html=1;entryX=0.5;entryY=1;entryDx=0;entryDy=0;" parent="1" source="gsF9Bx1qEcpegV5IB1y0-33" target="gsF9Bx1qEcpegV5IB1y0-21" edge="1">
          <mxGeometry relative="1" as="geometry" />
        </mxCell>
        <mxCell id="gsF9Bx1qEcpegV5IB1y0-33" value="" style="shape=image;verticalLabelPosition=bottom;verticalAlign=top;imageAspect=0;aspect=fixed;image=data:image/svg+xml,PHN2ZyB4bWxucz0iaHR0cDovL3d3dy53My5vcmcvMjAwMC9zdmciIHZpZXdCb3g9IjAgNy41IDUwIDU3IiBoZWlnaHQ9IjU3IiB3aWR0aD0iNTAiIGlkPSJMb2dvcyI+PGRlZnM+PHN0eWxlPi5jbHMtMXtmaWxsOiM3YjQyYmM7ZmlsbC1ydWxlOmV2ZW5vZGQ7c3Ryb2tlLXdpZHRoOjBweDt9PC9zdHlsZT48L2RlZnM+PHBhdGggZD0iTTE3LjMsMTcuNWwxNS41LDl2MThsLTE1LjUtOXYtMThaIiBjbGFzcz0iY2xzLTEiLz48cGF0aCBkPSJNMzQuNSwyNi41djE4bDE1LjUtOXYtMThsLTE1LjUsOVoiIGNsYXNzPSJjbHMtMSIvPjxwYXRoIGQ9Ik0wLDcuNXYxOGwxNS41LDl2LTE4TDAsNy41WiIgY2xhc3M9ImNscy0xIi8+PHBhdGggZD0iTTE3LjMsNTUuNWwxNS41LDl2LTE4bC0xNS41LTl2MThaIiBjbGFzcz0iY2xzLTEiLz48L3N2Zz4=;" parent="1" vertex="1">
          <mxGeometry x="648.7400000000001" y="473.00000000000006" width="40" height="45.6" as="geometry" />
        </mxCell>
        <mxCell id="gsF9Bx1qEcpegV5IB1y0-34" style="edgeStyle=orthogonalEdgeStyle;rounded=0;orthogonalLoop=1;jettySize=auto;html=1;entryX=0.5;entryY=1;entryDx=0;entryDy=0;exitX=0.5;exitY=0;exitDx=0;exitDy=0;jumpStyle=arc;" parent="1" source="gsF9Bx1qEcpegV5IB1y0-28" edge="1">
          <mxGeometry relative="1" as="geometry">
            <mxPoint x="362.5" y="534" as="sourcePoint" />
            <mxPoint x="482.5" y="417.86" as="targetPoint" />
            <Array as="points">
              <mxPoint x="482.5" y="460" />
              <mxPoint x="482.5" y="460" />
            </Array>
          </mxGeometry>
        </mxCell>
        <mxCell id="gsF9Bx1qEcpegV5IB1y0-42" value="" style="dashed=0;outlineConnect=0;html=1;align=center;labelPosition=center;verticalLabelPosition=bottom;verticalAlign=top;shape=mxgraph.weblogos.github" parent="1" vertex="1">
          <mxGeometry x="462.49999999999994" y="848.6400000000001" width="40" height="40" as="geometry" />
        </mxCell>
        <mxCell id="gsF9Bx1qEcpegV5IB1y0-43" value="GitHub repo 1.1.0" style="text;html=1;align=center;verticalAlign=middle;whiteSpace=wrap;rounded=0;" parent="1" vertex="1">
          <mxGeometry x="453.71" y="888.48" width="57.57" height="28.4" as="geometry" />
        </mxCell>
        <mxCell id="gsF9Bx1qEcpegV5IB1y0-47" style="edgeStyle=orthogonalEdgeStyle;rounded=0;orthogonalLoop=1;jettySize=auto;html=1;entryX=0.5;entryY=1;entryDx=0;entryDy=0;" parent="1" source="gsF9Bx1qEcpegV5IB1y0-45" target="gsF9Bx1qEcpegV5IB1y0-31" edge="1">
          <mxGeometry relative="1" as="geometry" />
        </mxCell>
        <mxCell id="gsF9Bx1qEcpegV5IB1y0-45" value="" style="dashed=0;outlineConnect=0;html=1;align=center;labelPosition=center;verticalLabelPosition=bottom;verticalAlign=top;shape=mxgraph.weblogos.github" parent="1" vertex="1">
          <mxGeometry x="648.7499999999999" y="849.44" width="40" height="40" as="geometry" />
        </mxCell>
        <mxCell id="gsF9Bx1qEcpegV5IB1y0-46" value="GitHub repo 2.0.0" style="text;html=1;align=center;verticalAlign=middle;whiteSpace=wrap;rounded=0;" parent="1" vertex="1">
          <mxGeometry x="637.59" y="890.08" width="62.29" height="28.4" as="geometry" />
        </mxCell>
        <mxCell id="gsF9Bx1qEcpegV5IB1y0-51" value="TF Team 1.0.0" style="text;html=1;align=center;verticalAlign=middle;whiteSpace=wrap;rounded=0;" parent="1" vertex="1">
          <mxGeometry x="300" y="687.17" width="80" height="12.83" as="geometry" />
        </mxCell>
        <mxCell id="gsF9Bx1qEcpegV5IB1y0-52" value="" style="shape=image;verticalLabelPosition=bottom;verticalAlign=top;imageAspect=0;aspect=fixed;image=data:image/svg+xml,PHN2ZyB4bWxucz0iaHR0cDovL3d3dy53My5vcmcvMjAwMC9zdmciIHZpZXdCb3g9IjAgNy41IDUwIDU3IiBoZWlnaHQ9IjU3IiB3aWR0aD0iNTAiIGlkPSJMb2dvcyI+PGRlZnM+PHN0eWxlPi5jbHMtMXtmaWxsOiM3YjQyYmM7ZmlsbC1ydWxlOmV2ZW5vZGQ7c3Ryb2tlLXdpZHRoOjBweDt9PC9zdHlsZT48L2RlZnM+PHBhdGggZD0iTTE3LjMsMTcuNWwxNS41LDl2MThsLTE1LjUtOXYtMThaIiBjbGFzcz0iY2xzLTEiLz48cGF0aCBkPSJNMzQuNSwyNi41djE4bDE1LjUtOXYtMThsLTE1LjUsOVoiIGNsYXNzPSJjbHMtMSIvPjxwYXRoIGQ9Ik0wLDcuNXYxOGwxNS41LDl2LTE4TDAsNy41WiIgY2xhc3M9ImNscy0xIi8+PHBhdGggZD0iTTE3LjMsNTUuNWwxNS41LDl2LTE4bC0xNS41LTl2MThaIiBjbGFzcz0iY2xzLTEiLz48L3N2Zz4=;" parent="1" vertex="1">
          <mxGeometry x="320" y="641.57" width="40" height="45.6" as="geometry" />
        </mxCell>
        <mxCell id="gsF9Bx1qEcpegV5IB1y0-54" value="TF Team 1.1.0" style="text;html=1;align=center;verticalAlign=middle;whiteSpace=wrap;rounded=0;" parent="1" vertex="1">
          <mxGeometry x="482.51" y="686.85" width="80" height="13.15" as="geometry" />
        </mxCell>
        <mxCell id="gsF9Bx1qEcpegV5IB1y0-56" style="edgeStyle=orthogonalEdgeStyle;rounded=0;orthogonalLoop=1;jettySize=auto;html=1;entryX=0.75;entryY=1;entryDx=0;entryDy=0;jumpStyle=arc;" parent="1" source="gsF9Bx1qEcpegV5IB1y0-55" edge="1">
          <mxGeometry relative="1" as="geometry">
            <Array as="points">
              <mxPoint x="522.5" y="590" />
              <mxPoint x="505.5" y="590" />
            </Array>
            <mxPoint x="505.75250000000005" y="540.0000000000002" as="targetPoint" />
          </mxGeometry>
        </mxCell>
        <mxCell id="tmKK2P-iVHeOnRurXa-_-2" value="Read&lt;div&gt;Permissions&lt;/div&gt;" style="edgeLabel;html=1;align=center;verticalAlign=middle;resizable=0;points=[];" parent="gsF9Bx1qEcpegV5IB1y0-56" vertex="1" connectable="0">
          <mxGeometry x="-0.4653" y="-1" relative="1" as="geometry">
            <mxPoint x="-1" y="7" as="offset" />
          </mxGeometry>
        </mxCell>
        <mxCell id="gsF9Bx1qEcpegV5IB1y0-55" value="" style="shape=image;verticalLabelPosition=bottom;verticalAlign=top;imageAspect=0;aspect=fixed;image=data:image/svg+xml,PHN2ZyB4bWxucz0iaHR0cDovL3d3dy53My5vcmcvMjAwMC9zdmciIHZpZXdCb3g9IjAgNy41IDUwIDU3IiBoZWlnaHQ9IjU3IiB3aWR0aD0iNTAiIGlkPSJMb2dvcyI+PGRlZnM+PHN0eWxlPi5jbHMtMXtmaWxsOiM3YjQyYmM7ZmlsbC1ydWxlOmV2ZW5vZGQ7c3Ryb2tlLXdpZHRoOjBweDt9PC9zdHlsZT48L2RlZnM+PHBhdGggZD0iTTE3LjMsMTcuNWwxNS41LDl2MThsLTE1LjUtOXYtMThaIiBjbGFzcz0iY2xzLTEiLz48cGF0aCBkPSJNMzQuNSwyNi41djE4bDE1LjUtOXYtMThsLTE1LjUsOVoiIGNsYXNzPSJjbHMtMSIvPjxwYXRoIGQ9Ik0wLDcuNXYxOGwxNS41LDl2LTE4TDAsNy41WiIgY2xhc3M9ImNscy0xIi8+PHBhdGggZD0iTTE3LjMsNTUuNWwxNS41LDl2LTE4bC0xNS41LTl2MThaIiBjbGFzcz0iY2xzLTEiLz48L3N2Zz4=;" parent="1" vertex="1">
          <mxGeometry x="502.51" y="641.25" width="40" height="45.6" as="geometry" />
        </mxCell>
        <mxCell id="gsF9Bx1qEcpegV5IB1y0-53" style="edgeStyle=orthogonalEdgeStyle;rounded=0;orthogonalLoop=1;jettySize=auto;html=1;jumpStyle=arc;" parent="1" source="gsF9Bx1qEcpegV5IB1y0-52" edge="1">
          <mxGeometry relative="1" as="geometry">
            <Array as="points">
              <mxPoint x="340" y="590" />
              <mxPoint x="320" y="590" />
            </Array>
            <mxPoint x="320" y="540" as="targetPoint" />
          </mxGeometry>
        </mxCell>
        <mxCell id="tmKK2P-iVHeOnRurXa-_-1" value="Read&lt;div&gt;Permissions&lt;/div&gt;" style="edgeLabel;html=1;align=center;verticalAlign=middle;resizable=0;points=[];" parent="gsF9Bx1qEcpegV5IB1y0-53" vertex="1" connectable="0">
          <mxGeometry x="-0.5533" y="2" relative="1" as="geometry">
            <mxPoint as="offset" />
          </mxGeometry>
        </mxCell>
        <mxCell id="gsF9Bx1qEcpegV5IB1y0-57" value="TF Team 2.0.0" style="text;html=1;align=center;verticalAlign=middle;whiteSpace=wrap;rounded=0;" parent="1" vertex="1">
          <mxGeometry x="671.24" y="687.9699999999999" width="80" height="12.83" as="geometry" />
        </mxCell>
        <mxCell id="gsF9Bx1qEcpegV5IB1y0-59" style="edgeStyle=orthogonalEdgeStyle;rounded=0;orthogonalLoop=1;jettySize=auto;html=1;entryX=0.75;entryY=1;entryDx=0;entryDy=0;" parent="1" source="gsF9Bx1qEcpegV5IB1y0-58" target="gsF9Bx1qEcpegV5IB1y0-31" edge="1">
          <mxGeometry relative="1" as="geometry" />
        </mxCell>
        <mxCell id="tmKK2P-iVHeOnRurXa-_-3" value="Read&lt;div&gt;Permissions&lt;/div&gt;" style="edgeLabel;html=1;align=center;verticalAlign=middle;resizable=0;points=[];" parent="gsF9Bx1qEcpegV5IB1y0-59" vertex="1" connectable="0">
          <mxGeometry x="-0.6282" y="-1" relative="1" as="geometry">
            <mxPoint x="-1" y="-1" as="offset" />
          </mxGeometry>
        </mxCell>
        <mxCell id="gsF9Bx1qEcpegV5IB1y0-58" value="" style="shape=image;verticalLabelPosition=bottom;verticalAlign=top;imageAspect=0;aspect=fixed;image=data:image/svg+xml,PHN2ZyB4bWxucz0iaHR0cDovL3d3dy53My5vcmcvMjAwMC9zdmciIHZpZXdCb3g9IjAgNy41IDUwIDU3IiBoZWlnaHQ9IjU3IiB3aWR0aD0iNTAiIGlkPSJMb2dvcyI+PGRlZnM+PHN0eWxlPi5jbHMtMXtmaWxsOiM3YjQyYmM7ZmlsbC1ydWxlOmV2ZW5vZGQ7c3Ryb2tlLXdpZHRoOjBweDt9PC9zdHlsZT48L2RlZnM+PHBhdGggZD0iTTE3LjMsMTcuNWwxNS41LDl2MThsLTE1LjUtOXYtMThaIiBjbGFzcz0iY2xzLTEiLz48cGF0aCBkPSJNMzQuNSwyNi41djE4bDE1LjUtOXYtMThsLTE1LjUsOVoiIGNsYXNzPSJjbHMtMSIvPjxwYXRoIGQ9Ik0wLDcuNXYxOGwxNS41LDl2LTE4TDAsNy41WiIgY2xhc3M9ImNscy0xIi8+PHBhdGggZD0iTTE3LjMsNTUuNWwxNS41LDl2LTE4bC0xNS41LTl2MThaIiBjbGFzcz0iY2xzLTEiLz48L3N2Zz4=;" parent="1" vertex="1">
          <mxGeometry x="691.24" y="642.37" width="40" height="45.6" as="geometry" />
        </mxCell>
        <mxCell id="tmKK2P-iVHeOnRurXa-_-35" style="edgeStyle=orthogonalEdgeStyle;rounded=0;orthogonalLoop=1;jettySize=auto;html=1;exitX=0.5;exitY=1;exitDx=0;exitDy=0;" parent="1" source="rq6KX50w68GIWsXOwsw3-7" target="rq6KX50w68GIWsXOwsw3-2" edge="1">
          <mxGeometry relative="1" as="geometry">
            <mxPoint x="340.5" y="880" as="sourcePoint" />
            <Array as="points" />
            <mxPoint x="460" y="1067.000454535124" as="targetPoint" />
          </mxGeometry>
        </mxCell>
        <mxCell id="tmKK2P-iVHeOnRurXa-_-5" value="TF Team Default Email Notifications" style="text;html=1;align=center;verticalAlign=middle;whiteSpace=wrap;rounded=0;" parent="1" vertex="1">
          <mxGeometry x="300" y="775.6" width="80" height="44.4" as="geometry" />
        </mxCell>
        <mxCell id="tmKK2P-iVHeOnRurXa-_-8" style="edgeStyle=orthogonalEdgeStyle;rounded=0;orthogonalLoop=1;jettySize=auto;html=1;entryX=0.5;entryY=1;entryDx=0;entryDy=0;" parent="1" source="tmKK2P-iVHeOnRurXa-_-6" target="gsF9Bx1qEcpegV5IB1y0-51" edge="1">
          <mxGeometry relative="1" as="geometry" />
        </mxCell>
        <mxCell id="tmKK2P-iVHeOnRurXa-_-6" value="" style="shape=image;verticalLabelPosition=bottom;verticalAlign=top;imageAspect=0;aspect=fixed;image=data:image/svg+xml,PHN2ZyB4bWxucz0iaHR0cDovL3d3dy53My5vcmcvMjAwMC9zdmciIHZpZXdCb3g9IjAgNy41IDUwIDU3IiBoZWlnaHQ9IjU3IiB3aWR0aD0iNTAiIGlkPSJMb2dvcyI+PGRlZnM+PHN0eWxlPi5jbHMtMXtmaWxsOiM3YjQyYmM7ZmlsbC1ydWxlOmV2ZW5vZGQ7c3Ryb2tlLXdpZHRoOjBweDt9PC9zdHlsZT48L2RlZnM+PHBhdGggZD0iTTE3LjMsMTcuNWwxNS41LDl2MThsLTE1LjUtOXYtMThaIiBjbGFzcz0iY2xzLTEiLz48cGF0aCBkPSJNMzQuNSwyNi41djE4bDE1LjUtOXYtMThsLTE1LjUsOVoiIGNsYXNzPSJjbHMtMSIvPjxwYXRoIGQ9Ik0wLDcuNXYxOGwxNS41LDl2LTE4TDAsNy41WiIgY2xhc3M9ImNscy0xIi8+PHBhdGggZD0iTTE3LjMsNTUuNWwxNS41LDl2LTE4bC0xNS41LTl2MThaIiBjbGFzcz0iY2xzLTEiLz48L3N2Zz4=;" parent="1" vertex="1">
          <mxGeometry x="320" y="730" width="40" height="45.6" as="geometry" />
        </mxCell>
        <mxCell id="tmKK2P-iVHeOnRurXa-_-10" value="TF Team Default Email Notifications" style="text;html=1;align=center;verticalAlign=middle;whiteSpace=wrap;rounded=0;" parent="1" vertex="1">
          <mxGeometry x="482.51" y="775.6" width="80" height="44.4" as="geometry" />
        </mxCell>
        <mxCell id="tmKK2P-iVHeOnRurXa-_-12" style="edgeStyle=orthogonalEdgeStyle;rounded=0;orthogonalLoop=1;jettySize=auto;html=1;entryX=0.5;entryY=1;entryDx=0;entryDy=0;" parent="1" source="tmKK2P-iVHeOnRurXa-_-11" target="gsF9Bx1qEcpegV5IB1y0-54" edge="1">
          <mxGeometry relative="1" as="geometry" />
        </mxCell>
        <mxCell id="tmKK2P-iVHeOnRurXa-_-11" value="" style="shape=image;verticalLabelPosition=bottom;verticalAlign=top;imageAspect=0;aspect=fixed;image=data:image/svg+xml,PHN2ZyB4bWxucz0iaHR0cDovL3d3dy53My5vcmcvMjAwMC9zdmciIHZpZXdCb3g9IjAgNy41IDUwIDU3IiBoZWlnaHQ9IjU3IiB3aWR0aD0iNTAiIGlkPSJMb2dvcyI+PGRlZnM+PHN0eWxlPi5jbHMtMXtmaWxsOiM3YjQyYmM7ZmlsbC1ydWxlOmV2ZW5vZGQ7c3Ryb2tlLXdpZHRoOjBweDt9PC9zdHlsZT48L2RlZnM+PHBhdGggZD0iTTE3LjMsMTcuNWwxNS41LDl2MThsLTE1LjUtOXYtMThaIiBjbGFzcz0iY2xzLTEiLz48cGF0aCBkPSJNMzQuNSwyNi41djE4bDE1LjUtOXYtMThsLTE1LjUsOVoiIGNsYXNzPSJjbHMtMSIvPjxwYXRoIGQ9Ik0wLDcuNXYxOGwxNS41LDl2LTE4TDAsNy41WiIgY2xhc3M9ImNscy0xIi8+PHBhdGggZD0iTTE3LjMsNTUuNWwxNS41LDl2LTE4bC0xNS41LTl2MThaIiBjbGFzcz0iY2xzLTEiLz48L3N2Zz4=;" parent="1" vertex="1">
          <mxGeometry x="502.51" y="730" width="40" height="45.6" as="geometry" />
        </mxCell>
        <mxCell id="tmKK2P-iVHeOnRurXa-_-13" value="TF Team Default Email Notifications" style="text;html=1;align=center;verticalAlign=middle;whiteSpace=wrap;rounded=0;" parent="1" vertex="1">
          <mxGeometry x="671.24" y="776.4" width="80" height="43.6" as="geometry" />
        </mxCell>
        <mxCell id="tmKK2P-iVHeOnRurXa-_-15" style="edgeStyle=orthogonalEdgeStyle;rounded=0;orthogonalLoop=1;jettySize=auto;html=1;entryX=0.5;entryY=1;entryDx=0;entryDy=0;" parent="1" source="tmKK2P-iVHeOnRurXa-_-14" target="gsF9Bx1qEcpegV5IB1y0-57" edge="1">
          <mxGeometry relative="1" as="geometry" />
        </mxCell>
        <mxCell id="tmKK2P-iVHeOnRurXa-_-14" value="" style="shape=image;verticalLabelPosition=bottom;verticalAlign=top;imageAspect=0;aspect=fixed;image=data:image/svg+xml,PHN2ZyB4bWxucz0iaHR0cDovL3d3dy53My5vcmcvMjAwMC9zdmciIHZpZXdCb3g9IjAgNy41IDUwIDU3IiBoZWlnaHQ9IjU3IiB3aWR0aD0iNTAiIGlkPSJMb2dvcyI+PGRlZnM+PHN0eWxlPi5jbHMtMXtmaWxsOiM3YjQyYmM7ZmlsbC1ydWxlOmV2ZW5vZGQ7c3Ryb2tlLXdpZHRoOjBweDt9PC9zdHlsZT48L2RlZnM+PHBhdGggZD0iTTE3LjMsMTcuNWwxNS41LDl2MThsLTE1LjUtOXYtMThaIiBjbGFzcz0iY2xzLTEiLz48cGF0aCBkPSJNMzQuNSwyNi41djE4bDE1LjUtOXYtMThsLTE1LjUsOVoiIGNsYXNzPSJjbHMtMSIvPjxwYXRoIGQ9Ik0wLDcuNXYxOGwxNS41LDl2LTE4TDAsNy41WiIgY2xhc3M9ImNscy0xIi8+PHBhdGggZD0iTTE3LjMsNTUuNWwxNS41LDl2LTE4bC0xNS41LTl2MThaIiBjbGFzcz0iY2xzLTEiLz48L3N2Zz4=;" parent="1" vertex="1">
          <mxGeometry x="691.24" y="730.8" width="40" height="45.6" as="geometry" />
        </mxCell>
        <mxCell id="tmKK2P-iVHeOnRurXa-_-16" value="AWS Account" style="points=[[0,0],[0.25,0],[0.5,0],[0.75,0],[1,0],[1,0.25],[1,0.5],[1,0.75],[1,1],[0.75,1],[0.5,1],[0.25,1],[0,1],[0,0.75],[0,0.5],[0,0.25]];outlineConnect=0;gradientColor=none;html=1;whiteSpace=wrap;fontSize=12;fontStyle=0;container=1;pointerEvents=0;collapsible=0;recursiveResize=0;shape=mxgraph.aws4.group;grIcon=mxgraph.aws4.group_account;strokeColor=#CD2264;fillColor=none;verticalAlign=top;align=left;spacingLeft=30;fontColor=#CD2264;dashed=0;" parent="1" vertex="1">
          <mxGeometry x="40" y="848.48" width="130.5" height="220.32" as="geometry" />
        </mxCell>
        <mxCell id="I730hue6tYaH45TsT1U1-1" value="" style="sketch=0;outlineConnect=0;fontColor=#232F3E;gradientColor=none;fillColor=#DD344C;strokeColor=none;dashed=0;verticalLabelPosition=bottom;verticalAlign=top;align=center;html=1;fontSize=12;fontStyle=0;aspect=fixed;pointerEvents=1;shape=mxgraph.aws4.role;" parent="tmKK2P-iVHeOnRurXa-_-16" vertex="1">
          <mxGeometry x="51" y="67.32000000000005" width="40" height="22.56" as="geometry" />
        </mxCell>
        <mxCell id="I730hue6tYaH45TsT1U1-7" value="IAM Role" style="text;html=1;align=center;verticalAlign=middle;whiteSpace=wrap;rounded=0;" parent="tmKK2P-iVHeOnRurXa-_-16" vertex="1">
          <mxGeometry x="41" y="89.88000000000022" width="60" height="30" as="geometry" />
        </mxCell>
        <mxCell id="I730hue6tYaH45TsT1U1-2" value="" style="sketch=0;points=[[0,0,0],[0.25,0,0],[0.5,0,0],[0.75,0,0],[1,0,0],[0,1,0],[0.25,1,0],[0.5,1,0],[0.75,1,0],[1,1,0],[0,0.25,0],[0,0.5,0],[0,0.75,0],[1,0.25,0],[1,0.5,0],[1,0.75,0]];outlineConnect=0;fontColor=#232F3E;fillColor=#DD344C;strokeColor=#ffffff;dashed=0;verticalLabelPosition=bottom;verticalAlign=top;align=center;html=1;fontSize=12;fontStyle=0;aspect=fixed;shape=mxgraph.aws4.resourceIcon;resIcon=mxgraph.aws4.identity_and_access_management;" parent="tmKK2P-iVHeOnRurXa-_-16" vertex="1">
          <mxGeometry x="51" y="147.32000000000005" width="40" height="40" as="geometry" />
        </mxCell>
        <mxCell id="I730hue6tYaH45TsT1U1-6" value="Identity Provider" style="text;html=1;align=center;verticalAlign=middle;whiteSpace=wrap;rounded=0;" parent="tmKK2P-iVHeOnRurXa-_-16" vertex="1">
          <mxGeometry x="41" y="187.32000000000005" width="60" height="31.28" as="geometry" />
        </mxCell>
        <mxCell id="JMdTiHEiAP7y4nDQYly6-3" style="edgeStyle=orthogonalEdgeStyle;rounded=0;orthogonalLoop=1;jettySize=auto;html=1;entryX=0.5;entryY=1;entryDx=0;entryDy=0;" parent="tmKK2P-iVHeOnRurXa-_-16" source="I730hue6tYaH45TsT1U1-2" target="I730hue6tYaH45TsT1U1-7" edge="1">
          <mxGeometry relative="1" as="geometry">
            <mxPoint x="71" y="117.32000000000005" as="targetPoint" />
          </mxGeometry>
        </mxCell>
        <mxCell id="rq6KX50w68GIWsXOwsw3-2" value="" style="sketch=0;outlineConnect=0;fontColor=#232F3E;gradientColor=none;fillColor=#DD344C;strokeColor=none;dashed=0;verticalLabelPosition=bottom;verticalAlign=top;align=center;html=1;fontSize=12;fontStyle=0;aspect=fixed;shape=mxgraph.aws4.email;" parent="1" vertex="1">
          <mxGeometry x="405.55" y="853.64" width="33.91" height="30" as="geometry" />
        </mxCell>
        <mxCell id="rq6KX50w68GIWsXOwsw3-4" value="Email" style="text;html=1;align=center;verticalAlign=middle;whiteSpace=wrap;rounded=0;" parent="1" vertex="1">
          <mxGeometry x="401.28" y="883.64" width="42.43" height="20" as="geometry" />
        </mxCell>
        <mxCell id="rq6KX50w68GIWsXOwsw3-6" style="edgeStyle=orthogonalEdgeStyle;rounded=0;orthogonalLoop=1;jettySize=auto;html=1;entryX=1;entryY=0.5;entryDx=0;entryDy=0;" parent="1" source="rq6KX50w68GIWsXOwsw3-5" target="gsF9Bx1qEcpegV5IB1y0-52" edge="1">
          <mxGeometry relative="1" as="geometry" />
        </mxCell>
        <mxCell id="rq6KX50w68GIWsXOwsw3-5" value="" style="shape=image;verticalLabelPosition=bottom;verticalAlign=top;imageAspect=0;aspect=fixed;image=data:image/svg+xml,PHN2ZyB4bWxucz0iaHR0cDovL3d3dy53My5vcmcvMjAwMC9zdmciIHZpZXdCb3g9IjAgNy41IDUwIDU3IiBoZWlnaHQ9IjU3IiB3aWR0aD0iNTAiIGlkPSJMb2dvcyI+PGRlZnM+PHN0eWxlPi5jbHMtMXtmaWxsOiM3YjQyYmM7ZmlsbC1ydWxlOmV2ZW5vZGQ7c3Ryb2tlLXdpZHRoOjBweDt9PC9zdHlsZT48L2RlZnM+PHBhdGggZD0iTTE3LjMsMTcuNWwxNS41LDl2MThsLTE1LjUtOXYtMThaIiBjbGFzcz0iY2xzLTEiLz48cGF0aCBkPSJNMzQuNSwyNi41djE4bDE1LjUtOXYtMThsLTE1LjUsOVoiIGNsYXNzPSJjbHMtMSIvPjxwYXRoIGQ9Ik0wLDcuNXYxOGwxNS41LDl2LTE4TDAsNy41WiIgY2xhc3M9ImNscy0xIi8+PHBhdGggZD0iTTE3LjMsNTUuNWwxNS41LDl2LTE4bC0xNS41LTl2MThaIiBjbGFzcz0iY2xzLTEiLz48L3N2Zz4=;" parent="1" vertex="1">
          <mxGeometry x="402.5" y="641.57" width="40" height="45.6" as="geometry" />
        </mxCell>
        <mxCell id="rq6KX50w68GIWsXOwsw3-7" value="TF User" style="text;html=1;align=center;verticalAlign=middle;whiteSpace=wrap;rounded=0;" parent="1" vertex="1">
          <mxGeometry x="382.51" y="687.17" width="80" height="12.83" as="geometry" />
        </mxCell>
        <mxCell id="rq6KX50w68GIWsXOwsw3-11" style="edgeStyle=orthogonalEdgeStyle;rounded=0;orthogonalLoop=1;jettySize=auto;html=1;entryX=1;entryY=0.5;entryDx=0;entryDy=0;" parent="1" source="rq6KX50w68GIWsXOwsw3-9" target="gsF9Bx1qEcpegV5IB1y0-55" edge="1">
          <mxGeometry relative="1" as="geometry" />
        </mxCell>
        <mxCell id="rq6KX50w68GIWsXOwsw3-9" value="" style="shape=image;verticalLabelPosition=bottom;verticalAlign=top;imageAspect=0;aspect=fixed;image=data:image/svg+xml,PHN2ZyB4bWxucz0iaHR0cDovL3d3dy53My5vcmcvMjAwMC9zdmciIHZpZXdCb3g9IjAgNy41IDUwIDU3IiBoZWlnaHQ9IjU3IiB3aWR0aD0iNTAiIGlkPSJMb2dvcyI+PGRlZnM+PHN0eWxlPi5jbHMtMXtmaWxsOiM3YjQyYmM7ZmlsbC1ydWxlOmV2ZW5vZGQ7c3Ryb2tlLXdpZHRoOjBweDt9PC9zdHlsZT48L2RlZnM+PHBhdGggZD0iTTE3LjMsMTcuNWwxNS41LDl2MThsLTE1LjUtOXYtMThaIiBjbGFzcz0iY2xzLTEiLz48cGF0aCBkPSJNMzQuNSwyNi41djE4bDE1LjUtOXYtMThsLTE1LjUsOVoiIGNsYXNzPSJjbHMtMSIvPjxwYXRoIGQ9Ik0wLDcuNXYxOGwxNS41LDl2LTE4TDAsNy41WiIgY2xhc3M9ImNscy0xIi8+PHBhdGggZD0iTTE3LjMsNTUuNWwxNS41LDl2LTE4bC0xNS41LTl2MThaIiBjbGFzcz0iY2xzLTEiLz48L3N2Zz4=;" parent="1" vertex="1">
          <mxGeometry x="591.23" y="641.57" width="40" height="45.6" as="geometry" />
        </mxCell>
        <mxCell id="rq6KX50w68GIWsXOwsw3-16" style="edgeStyle=orthogonalEdgeStyle;rounded=0;orthogonalLoop=1;jettySize=auto;html=1;" parent="1" source="rq6KX50w68GIWsXOwsw3-10" target="rq6KX50w68GIWsXOwsw3-14" edge="1">
          <mxGeometry relative="1" as="geometry" />
        </mxCell>
        <mxCell id="rq6KX50w68GIWsXOwsw3-10" value="TF User" style="text;html=1;align=center;verticalAlign=middle;whiteSpace=wrap;rounded=0;" parent="1" vertex="1">
          <mxGeometry x="571.24" y="687.17" width="80" height="12.83" as="geometry" />
        </mxCell>
        <mxCell id="rq6KX50w68GIWsXOwsw3-14" value="" style="sketch=0;outlineConnect=0;fontColor=#232F3E;gradientColor=none;fillColor=#DD344C;strokeColor=none;dashed=0;verticalLabelPosition=bottom;verticalAlign=top;align=center;html=1;fontSize=12;fontStyle=0;aspect=fixed;shape=mxgraph.aws4.email;" parent="1" vertex="1">
          <mxGeometry x="594.29" y="853.64" width="33.91" height="30" as="geometry" />
        </mxCell>
        <mxCell id="rq6KX50w68GIWsXOwsw3-15" value="Email" style="text;html=1;align=center;verticalAlign=middle;whiteSpace=wrap;rounded=0;" parent="1" vertex="1">
          <mxGeometry x="590.02" y="883.64" width="42.43" height="20" as="geometry" />
        </mxCell>
        <mxCell id="rq6KX50w68GIWsXOwsw3-21" style="edgeStyle=orthogonalEdgeStyle;rounded=0;orthogonalLoop=1;jettySize=auto;html=1;entryX=1;entryY=0.5;entryDx=0;entryDy=0;" parent="1" source="rq6KX50w68GIWsXOwsw3-17" target="gsF9Bx1qEcpegV5IB1y0-58" edge="1">
          <mxGeometry relative="1" as="geometry" />
        </mxCell>
        <mxCell id="rq6KX50w68GIWsXOwsw3-17" value="" style="shape=image;verticalLabelPosition=bottom;verticalAlign=top;imageAspect=0;aspect=fixed;image=data:image/svg+xml,PHN2ZyB4bWxucz0iaHR0cDovL3d3dy53My5vcmcvMjAwMC9zdmciIHZpZXdCb3g9IjAgNy41IDUwIDU3IiBoZWlnaHQ9IjU3IiB3aWR0aD0iNTAiIGlkPSJMb2dvcyI+PGRlZnM+PHN0eWxlPi5jbHMtMXtmaWxsOiM3YjQyYmM7ZmlsbC1ydWxlOmV2ZW5vZGQ7c3Ryb2tlLXdpZHRoOjBweDt9PC9zdHlsZT48L2RlZnM+PHBhdGggZD0iTTE3LjMsMTcuNWwxNS41LDl2MThsLTE1LjUtOXYtMThaIiBjbGFzcz0iY2xzLTEiLz48cGF0aCBkPSJNMzQuNSwyNi41djE4bDE1LjUtOXYtMThsLTE1LjUsOVoiIGNsYXNzPSJjbHMtMSIvPjxwYXRoIGQ9Ik0wLDcuNXYxOGwxNS41LDl2LTE4TDAsNy41WiIgY2xhc3M9ImNscy0xIi8+PHBhdGggZD0iTTE3LjMsNTUuNWwxNS41LDl2LTE4bC0xNS41LTl2MThaIiBjbGFzcz0iY2xzLTEiLz48L3N2Zz4=;" parent="1" vertex="1">
          <mxGeometry x="771.21" y="642.37" width="40" height="45.6" as="geometry" />
        </mxCell>
        <mxCell id="rq6KX50w68GIWsXOwsw3-18" style="edgeStyle=orthogonalEdgeStyle;rounded=0;orthogonalLoop=1;jettySize=auto;html=1;" parent="1" target="rq6KX50w68GIWsXOwsw3-19" edge="1">
          <mxGeometry relative="1" as="geometry">
            <mxPoint x="790.98" y="699.68" as="sourcePoint" />
          </mxGeometry>
        </mxCell>
        <mxCell id="rq6KX50w68GIWsXOwsw3-19" value="" style="sketch=0;outlineConnect=0;fontColor=#232F3E;gradientColor=none;fillColor=#DD344C;strokeColor=none;dashed=0;verticalLabelPosition=bottom;verticalAlign=top;align=center;html=1;fontSize=12;fontStyle=0;aspect=fixed;shape=mxgraph.aws4.email;" parent="1" vertex="1">
          <mxGeometry x="774.26" y="854.4399999999999" width="33.91" height="30" as="geometry" />
        </mxCell>
        <mxCell id="rq6KX50w68GIWsXOwsw3-20" value="Email" style="text;html=1;align=center;verticalAlign=middle;whiteSpace=wrap;rounded=0;" parent="1" vertex="1">
          <mxGeometry x="770" y="883.64" width="42.43" height="20" as="geometry" />
        </mxCell>
        <mxCell id="rq6KX50w68GIWsXOwsw3-22" value="TF User" style="text;html=1;align=center;verticalAlign=middle;whiteSpace=wrap;rounded=0;" parent="1" vertex="1">
          <mxGeometry x="766.8100000000001" y="686.85" width="48.79" height="12.83" as="geometry" />
        </mxCell>
        <mxCell id="WOMsC9B_XQN2I3Cg6vMM-2" style="edgeStyle=orthogonalEdgeStyle;rounded=0;orthogonalLoop=1;jettySize=auto;html=1;entryX=0.5;entryY=1;entryDx=0;entryDy=0;" edge="1" parent="1" source="WOMsC9B_XQN2I3Cg6vMM-1" target="TStTHGaZPPmebfxb5bF6-5">
          <mxGeometry relative="1" as="geometry" />
        </mxCell>
        <mxCell id="WOMsC9B_XQN2I3Cg6vMM-1" value="main.tf" style="rounded=0;whiteSpace=wrap;html=1;" vertex="1" parent="1">
          <mxGeometry x="266.43" y="950" width="70" height="30" as="geometry" />
        </mxCell>
        <mxCell id="WOMsC9B_XQN2I3Cg6vMM-4" style="edgeStyle=orthogonalEdgeStyle;rounded=0;orthogonalLoop=1;jettySize=auto;html=1;entryX=0.5;entryY=1;entryDx=0;entryDy=0;" edge="1" parent="1" source="WOMsC9B_XQN2I3Cg6vMM-3" target="gsF9Bx1qEcpegV5IB1y0-43">
          <mxGeometry relative="1" as="geometry" />
        </mxCell>
        <mxCell id="WOMsC9B_XQN2I3Cg6vMM-3" value="main.tf" style="rounded=0;whiteSpace=wrap;html=1;" vertex="1" parent="1">
          <mxGeometry x="447.51" y="950" width="70" height="30" as="geometry" />
        </mxCell>
        <mxCell id="WOMsC9B_XQN2I3Cg6vMM-6" style="edgeStyle=orthogonalEdgeStyle;rounded=0;orthogonalLoop=1;jettySize=auto;html=1;entryX=0.5;entryY=1;entryDx=0;entryDy=0;" edge="1" parent="1" source="WOMsC9B_XQN2I3Cg6vMM-5" target="gsF9Bx1qEcpegV5IB1y0-46">
          <mxGeometry relative="1" as="geometry" />
        </mxCell>
        <mxCell id="WOMsC9B_XQN2I3Cg6vMM-5" value="main.tf" style="rounded=0;whiteSpace=wrap;html=1;" vertex="1" parent="1">
          <mxGeometry x="633.75" y="950" width="70" height="30" as="geometry" />
        </mxCell>
      </root>
    </mxGraphModel>
  </diagram>
  <diagram name="bootstrap" id="2Sl_JtRE2qDERSuFSkaN">
    <mxGraphModel dx="1273" dy="866" grid="1" gridSize="10" guides="1" tooltips="1" connect="1" arrows="1" fold="1" page="1" pageScale="1" pageWidth="827" pageHeight="1169" math="0" shadow="0">
      <root>
        <mxCell id="iEyLbZiMmJzwiiPF3CuB-0" />
        <mxCell id="iEyLbZiMmJzwiiPF3CuB-1" parent="iEyLbZiMmJzwiiPF3CuB-0" />
        <mxCell id="iEyLbZiMmJzwiiPF3CuB-2" value="" style="rounded=0;whiteSpace=wrap;html=1;fillColor=none;strokeColor=light-dark(#7b42bc, #ededed);" vertex="1" parent="iEyLbZiMmJzwiiPF3CuB-1">
          <mxGeometry x="40" y="290" width="780" height="550" as="geometry" />
        </mxCell>
        <mxCell id="iEyLbZiMmJzwiiPF3CuB-4" value="" style="rounded=0;whiteSpace=wrap;html=1;fillColor=none;strokeColor=light-dark(#7b42bc, #ededed);" vertex="1" parent="iEyLbZiMmJzwiiPF3CuB-1">
          <mxGeometry x="160" y="310.06" width="610" height="110" as="geometry" />
        </mxCell>
        <mxCell id="iEyLbZiMmJzwiiPF3CuB-5" style="edgeStyle=orthogonalEdgeStyle;rounded=0;orthogonalLoop=1;jettySize=auto;html=1;" edge="1" parent="iEyLbZiMmJzwiiPF3CuB-1" source="iEyLbZiMmJzwiiPF3CuB-8" target="iEyLbZiMmJzwiiPF3CuB-41">
          <mxGeometry relative="1" as="geometry" />
        </mxCell>
        <mxCell id="iEyLbZiMmJzwiiPF3CuB-8" value="" style="dashed=0;outlineConnect=0;html=1;align=center;labelPosition=center;verticalLabelPosition=bottom;verticalAlign=top;shape=mxgraph.weblogos.github" vertex="1" parent="iEyLbZiMmJzwiiPF3CuB-1">
          <mxGeometry x="190.5" y="129" width="40" height="40" as="geometry" />
        </mxCell>
        <mxCell id="iEyLbZiMmJzwiiPF3CuB-9" value="GitHub repo for VPC module" style="text;html=1;align=center;verticalAlign=middle;whiteSpace=wrap;rounded=0;" vertex="1" parent="iEyLbZiMmJzwiiPF3CuB-1">
          <mxGeometry x="168.12" y="169" width="84.75" height="30" as="geometry" />
        </mxCell>
        <mxCell id="iEyLbZiMmJzwiiPF3CuB-10" value="TF Organization" style="text;html=1;align=center;verticalAlign=middle;whiteSpace=wrap;rounded=0;" vertex="1" parent="iEyLbZiMmJzwiiPF3CuB-1">
          <mxGeometry x="58" y="290" width="92" height="20" as="geometry" />
        </mxCell>
        <mxCell id="iEyLbZiMmJzwiiPF3CuB-11" value="" style="rounded=0;whiteSpace=wrap;html=1;fillColor=none;strokeColor=light-dark(#7b42bc, #ededed);" vertex="1" parent="iEyLbZiMmJzwiiPF3CuB-1">
          <mxGeometry x="247.87" y="440" width="522.13" height="120" as="geometry" />
        </mxCell>
        <mxCell id="iEyLbZiMmJzwiiPF3CuB-15" value="GitHub OAuth Client" style="text;html=1;align=center;verticalAlign=middle;whiteSpace=wrap;rounded=0;" vertex="1" parent="iEyLbZiMmJzwiiPF3CuB-1">
          <mxGeometry x="50" y="387.86" width="80" height="30" as="geometry" />
        </mxCell>
        <mxCell id="iEyLbZiMmJzwiiPF3CuB-16" value="TF Project" style="text;html=1;align=center;verticalAlign=middle;whiteSpace=wrap;rounded=0;" vertex="1" parent="iEyLbZiMmJzwiiPF3CuB-1">
          <mxGeometry x="266.87" y="440" width="63.13" height="20" as="geometry" />
        </mxCell>
        <mxCell id="iEyLbZiMmJzwiiPF3CuB-17" value="Release v1.0.0" style="text;html=1;align=center;verticalAlign=middle;whiteSpace=wrap;rounded=0;" vertex="1" parent="iEyLbZiMmJzwiiPF3CuB-1">
          <mxGeometry x="257.87" y="387.86" width="80" height="30" as="geometry" />
        </mxCell>
        <mxCell id="iEyLbZiMmJzwiiPF3CuB-18" style="edgeStyle=orthogonalEdgeStyle;rounded=0;orthogonalLoop=1;jettySize=auto;html=1;entryX=0.5;entryY=1;entryDx=0;entryDy=0;" edge="1" parent="iEyLbZiMmJzwiiPF3CuB-1" source="iEyLbZiMmJzwiiPF3CuB-87" target="iEyLbZiMmJzwiiPF3CuB-23">
          <mxGeometry relative="1" as="geometry">
            <mxPoint x="110" y="666.71" as="targetPoint" />
          </mxGeometry>
        </mxCell>
        <mxCell id="iEyLbZiMmJzwiiPF3CuB-19" value="Role ARN" style="edgeLabel;html=1;align=center;verticalAlign=middle;resizable=0;points=[];" vertex="1" connectable="0" parent="iEyLbZiMmJzwiiPF3CuB-18">
          <mxGeometry x="-0.228" relative="1" as="geometry">
            <mxPoint y="-27" as="offset" />
          </mxGeometry>
        </mxCell>
        <mxCell id="iEyLbZiMmJzwiiPF3CuB-20" style="edgeStyle=orthogonalEdgeStyle;rounded=0;orthogonalLoop=1;jettySize=auto;html=1;" edge="1" parent="iEyLbZiMmJzwiiPF3CuB-1" source="iEyLbZiMmJzwiiPF3CuB-21" target="iEyLbZiMmJzwiiPF3CuB-8">
          <mxGeometry relative="1" as="geometry">
            <Array as="points">
              <mxPoint x="211" y="79" />
              <mxPoint x="211" y="79" />
            </Array>
          </mxGeometry>
        </mxCell>
        <mxCell id="iEyLbZiMmJzwiiPF3CuB-21" value="main.tf" style="rounded=0;whiteSpace=wrap;html=1;" vertex="1" parent="iEyLbZiMmJzwiiPF3CuB-1">
          <mxGeometry x="175.5" y="80" width="70" height="30" as="geometry" />
        </mxCell>
        <mxCell id="iEyLbZiMmJzwiiPF3CuB-23" value="TF Variable set OIDC vars" style="text;html=1;align=center;verticalAlign=middle;whiteSpace=wrap;rounded=0;" vertex="1" parent="iEyLbZiMmJzwiiPF3CuB-1">
          <mxGeometry x="71" y="552.7300000000001" width="80" height="30" as="geometry" />
        </mxCell>
        <mxCell id="iEyLbZiMmJzwiiPF3CuB-25" value="" style="dashed=0;outlineConnect=0;html=1;align=center;labelPosition=center;verticalLabelPosition=bottom;verticalAlign=top;shape=mxgraph.weblogos.github" vertex="1" parent="iEyLbZiMmJzwiiPF3CuB-1">
          <mxGeometry x="281.43" y="848.4799999999999" width="40" height="40" as="geometry" />
        </mxCell>
        <mxCell id="iEyLbZiMmJzwiiPF3CuB-26" value="GitHub repo 1.0.0" style="text;html=1;align=center;verticalAlign=middle;whiteSpace=wrap;rounded=0;" vertex="1" parent="iEyLbZiMmJzwiiPF3CuB-1">
          <mxGeometry x="272.32" y="888.48" width="58.24" height="30" as="geometry" />
        </mxCell>
        <mxCell id="iEyLbZiMmJzwiiPF3CuB-27" value="" style="shape=image;verticalLabelPosition=bottom;verticalAlign=top;imageAspect=0;aspect=fixed;image=data:image/svg+xml,PHN2ZyB4bWxucz0iaHR0cDovL3d3dy53My5vcmcvMjAwMC9zdmciIHZpZXdCb3g9IjAgNy41IDUwIDU3IiBoZWlnaHQ9IjU3IiB3aWR0aD0iNTAiIGlkPSJMb2dvcyI+PGRlZnM+PHN0eWxlPi5jbHMtMXtmaWxsOiM3YjQyYmM7ZmlsbC1ydWxlOmV2ZW5vZGQ7c3Ryb2tlLXdpZHRoOjBweDt9PC9zdHlsZT48L2RlZnM+PHBhdGggZD0iTTE3LjMsMTcuNWwxNS41LDl2MThsLTE1LjUtOXYtMThaIiBjbGFzcz0iY2xzLTEiLz48cGF0aCBkPSJNMzQuNSwyNi41djE4bDE1LjUtOXYtMThsLTE1LjUsOVoiIGNsYXNzPSJjbHMtMSIvPjxwYXRoIGQ9Ik0wLDcuNXYxOGwxNS41LDl2LTE4TDAsNy41WiIgY2xhc3M9ImNscy0xIi8+PHBhdGggZD0iTTE3LjMsNTUuNWwxNS41LDl2LTE4bC0xNS41LTl2MThaIiBjbGFzcz0iY2xzLTEiLz48L3N2Zz4=;" vertex="1" parent="iEyLbZiMmJzwiiPF3CuB-1">
          <mxGeometry x="40" y="290" width="17.54" height="20" as="geometry" />
        </mxCell>
        <mxCell id="iEyLbZiMmJzwiiPF3CuB-28" style="edgeStyle=orthogonalEdgeStyle;rounded=0;orthogonalLoop=1;jettySize=auto;html=1;entryX=0.5;entryY=1;entryDx=0;entryDy=0;" edge="1" parent="iEyLbZiMmJzwiiPF3CuB-1" source="iEyLbZiMmJzwiiPF3CuB-29" target="iEyLbZiMmJzwiiPF3CuB-42">
          <mxGeometry relative="1" as="geometry" />
        </mxCell>
        <mxCell id="iEyLbZiMmJzwiiPF3CuB-29" value="" style="shape=image;verticalLabelPosition=bottom;verticalAlign=top;imageAspect=0;aspect=fixed;image=data:image/svg+xml,PHN2ZyB4bWxucz0iaHR0cDovL3d3dy53My5vcmcvMjAwMC9zdmciIHZpZXdCb3g9IjAgNy41IDUwIDU3IiBoZWlnaHQ9IjU3IiB3aWR0aD0iNTAiIGlkPSJMb2dvcyI+PGRlZnM+PHN0eWxlPi5jbHMtMXtmaWxsOiM3YjQyYmM7ZmlsbC1ydWxlOmV2ZW5vZGQ7c3Ryb2tlLXdpZHRoOjBweDt9PC9zdHlsZT48L2RlZnM+PHBhdGggZD0iTTE3LjMsMTcuNWwxNS41LDl2MThsLTE1LjUtOXYtMThaIiBjbGFzcz0iY2xzLTEiLz48cGF0aCBkPSJNMzQuNSwyNi41djE4bDE1LjUtOXYtMThsLTE1LjUsOVoiIGNsYXNzPSJjbHMtMSIvPjxwYXRoIGQ9Ik0wLDcuNXYxOGwxNS41LDl2LTE4TDAsNy41WiIgY2xhc3M9ImNscy0xIi8+PHBhdGggZD0iTTE3LjMsNTUuNWwxNS41LDl2LTE4bC0xNS41LTl2MThaIiBjbGFzcz0iY2xzLTEiLz48L3N2Zz4=;" vertex="1" parent="iEyLbZiMmJzwiiPF3CuB-1">
          <mxGeometry x="277.87" y="342.26" width="40" height="45.6" as="geometry" />
        </mxCell>
        <mxCell id="iEyLbZiMmJzwiiPF3CuB-30" style="edgeStyle=orthogonalEdgeStyle;rounded=0;orthogonalLoop=1;jettySize=auto;html=1;entryX=0;entryY=0.5;entryDx=0;entryDy=0;" edge="1" parent="iEyLbZiMmJzwiiPF3CuB-1" source="iEyLbZiMmJzwiiPF3CuB-31" target="iEyLbZiMmJzwiiPF3CuB-4">
          <mxGeometry relative="1" as="geometry">
            <mxPoint x="160" y="365" as="targetPoint" />
          </mxGeometry>
        </mxCell>
        <mxCell id="iEyLbZiMmJzwiiPF3CuB-31" value="" style="shape=image;verticalLabelPosition=bottom;verticalAlign=top;imageAspect=0;aspect=fixed;image=data:image/svg+xml,PHN2ZyB4bWxucz0iaHR0cDovL3d3dy53My5vcmcvMjAwMC9zdmciIHZpZXdCb3g9IjAgNy41IDUwIDU3IiBoZWlnaHQ9IjU3IiB3aWR0aD0iNTAiIGlkPSJMb2dvcyI+PGRlZnM+PHN0eWxlPi5jbHMtMXtmaWxsOiM3YjQyYmM7ZmlsbC1ydWxlOmV2ZW5vZGQ7c3Ryb2tlLXdpZHRoOjBweDt9PC9zdHlsZT48L2RlZnM+PHBhdGggZD0iTTE3LjMsMTcuNWwxNS41LDl2MThsLTE1LjUtOXYtMThaIiBjbGFzcz0iY2xzLTEiLz48cGF0aCBkPSJNMzQuNSwyNi41djE4bDE1LjUtOXYtMThsLTE1LjUsOVoiIGNsYXNzPSJjbHMtMSIvPjxwYXRoIGQ9Ik0wLDcuNXYxOGwxNS41LDl2LTE4TDAsNy41WiIgY2xhc3M9ImNscy0xIi8+PHBhdGggZD0iTTE3LjMsNTUuNWwxNS41LDl2LTE4bC0xNS41LTl2MThaIiBjbGFzcz0iY2xzLTEiLz48L3N2Zz4=;" vertex="1" parent="iEyLbZiMmJzwiiPF3CuB-1">
          <mxGeometry x="70.5" y="342.26" width="40" height="45.6" as="geometry" />
        </mxCell>
        <mxCell id="iEyLbZiMmJzwiiPF3CuB-32" value="" style="shape=image;verticalLabelPosition=bottom;verticalAlign=top;imageAspect=0;aspect=fixed;image=data:image/svg+xml,PHN2ZyB4bWxucz0iaHR0cDovL3d3dy53My5vcmcvMjAwMC9zdmciIHZpZXdCb3g9IjAgNy41IDUwIDU3IiBoZWlnaHQ9IjU3IiB3aWR0aD0iNTAiIGlkPSJMb2dvcyI+PGRlZnM+PHN0eWxlPi5jbHMtMXtmaWxsOiM3YjQyYmM7ZmlsbC1ydWxlOmV2ZW5vZGQ7c3Ryb2tlLXdpZHRoOjBweDt9PC9zdHlsZT48L2RlZnM+PHBhdGggZD0iTTE3LjMsMTcuNWwxNS41LDl2MThsLTE1LjUtOXYtMThaIiBjbGFzcz0iY2xzLTEiLz48cGF0aCBkPSJNMzQuNSwyNi41djE4bDE1LjUtOXYtMThsLTE1LjUsOVoiIGNsYXNzPSJjbHMtMSIvPjxwYXRoIGQ9Ik0wLDcuNXYxOGwxNS41LDl2LTE4TDAsNy41WiIgY2xhc3M9ImNscy0xIi8+PHBhdGggZD0iTTE3LjMsNTUuNWwxNS41LDl2LTE4bC0xNS41LTl2MThaIiBjbGFzcz0iY2xzLTEiLz48L3N2Zz4=;" vertex="1" parent="iEyLbZiMmJzwiiPF3CuB-1">
          <mxGeometry x="247.87" y="440" width="17.54" height="20" as="geometry" />
        </mxCell>
        <mxCell id="iEyLbZiMmJzwiiPF3CuB-35" style="edgeStyle=orthogonalEdgeStyle;rounded=0;orthogonalLoop=1;jettySize=auto;html=1;entryX=0;entryY=0.75;entryDx=0;entryDy=0;jumpStyle=arc;" edge="1" parent="iEyLbZiMmJzwiiPF3CuB-1" source="iEyLbZiMmJzwiiPF3CuB-36" target="iEyLbZiMmJzwiiPF3CuB-11">
          <mxGeometry relative="1" as="geometry" />
        </mxCell>
        <mxCell id="iEyLbZiMmJzwiiPF3CuB-36" value="" style="shape=image;verticalLabelPosition=bottom;verticalAlign=top;imageAspect=0;aspect=fixed;image=data:image/svg+xml,PHN2ZyB4bWxucz0iaHR0cDovL3d3dy53My5vcmcvMjAwMC9zdmciIHZpZXdCb3g9IjAgNy41IDUwIDU3IiBoZWlnaHQ9IjU3IiB3aWR0aD0iNTAiIGlkPSJMb2dvcyI+PGRlZnM+PHN0eWxlPi5jbHMtMXtmaWxsOiM3YjQyYmM7ZmlsbC1ydWxlOmV2ZW5vZGQ7c3Ryb2tlLXdpZHRoOjBweDt9PC9zdHlsZT48L2RlZnM+PHBhdGggZD0iTTE3LjMsMTcuNWwxNS41LDl2MThsLTE1LjUtOXYtMThaIiBjbGFzcz0iY2xzLTEiLz48cGF0aCBkPSJNMzQuNSwyNi41djE4bDE1LjUtOXYtMThsLTE1LjUsOVoiIGNsYXNzPSJjbHMtMSIvPjxwYXRoIGQ9Ik0wLDcuNXYxOGwxNS41LDl2LTE4TDAsNy41WiIgY2xhc3M9ImNscy0xIi8+PHBhdGggZD0iTTE3LjMsNTUuNWwxNS41LDl2LTE4bC0xNS41LTl2MThaIiBjbGFzcz0iY2xzLTEiLz48L3N2Zz4=;" vertex="1" parent="iEyLbZiMmJzwiiPF3CuB-1">
          <mxGeometry x="90" y="507.13" width="40" height="45.6" as="geometry" />
        </mxCell>
        <mxCell id="iEyLbZiMmJzwiiPF3CuB-37" style="edgeStyle=orthogonalEdgeStyle;rounded=0;orthogonalLoop=1;jettySize=auto;html=1;entryX=0.5;entryY=1;entryDx=0;entryDy=0;" edge="1" parent="iEyLbZiMmJzwiiPF3CuB-1" source="iEyLbZiMmJzwiiPF3CuB-4" target="iEyLbZiMmJzwiiPF3CuB-9">
          <mxGeometry relative="1" as="geometry">
            <Array as="points">
              <mxPoint x="210" y="270" />
              <mxPoint x="210" y="270" />
            </Array>
          </mxGeometry>
        </mxCell>
        <mxCell id="iEyLbZiMmJzwiiPF3CuB-38" value="VCS Integration" style="edgeLabel;html=1;align=center;verticalAlign=middle;resizable=0;points=[];" vertex="1" connectable="0" parent="iEyLbZiMmJzwiiPF3CuB-37">
          <mxGeometry x="-0.0797" y="1" relative="1" as="geometry">
            <mxPoint as="offset" />
          </mxGeometry>
        </mxCell>
        <mxCell id="iEyLbZiMmJzwiiPF3CuB-39" value="TF Registry Module" style="text;html=1;align=center;verticalAlign=middle;whiteSpace=wrap;rounded=0;" vertex="1" parent="iEyLbZiMmJzwiiPF3CuB-1">
          <mxGeometry x="177.54" y="310" width="111" height="20" as="geometry" />
        </mxCell>
        <mxCell id="iEyLbZiMmJzwiiPF3CuB-40" value="" style="shape=image;verticalLabelPosition=bottom;verticalAlign=top;imageAspect=0;aspect=fixed;image=data:image/svg+xml,PHN2ZyB4bWxucz0iaHR0cDovL3d3dy53My5vcmcvMjAwMC9zdmciIHZpZXdCb3g9IjAgNy41IDUwIDU3IiBoZWlnaHQ9IjU3IiB3aWR0aD0iNTAiIGlkPSJMb2dvcyI+PGRlZnM+PHN0eWxlPi5jbHMtMXtmaWxsOiM3YjQyYmM7ZmlsbC1ydWxlOmV2ZW5vZGQ7c3Ryb2tlLXdpZHRoOjBweDt9PC9zdHlsZT48L2RlZnM+PHBhdGggZD0iTTE3LjMsMTcuNWwxNS41LDl2MThsLTE1LjUtOXYtMThaIiBjbGFzcz0iY2xzLTEiLz48cGF0aCBkPSJNMzQuNSwyNi41djE4bDE1LjUtOXYtMThsLTE1LjUsOVoiIGNsYXNzPSJjbHMtMSIvPjxwYXRoIGQ9Ik0wLDcuNXYxOGwxNS41LDl2LTE4TDAsNy41WiIgY2xhc3M9ImNscy0xIi8+PHBhdGggZD0iTTE3LjMsNTUuNWwxNS41LDl2LTE4bC0xNS41LTl2MThaIiBjbGFzcz0iY2xzLTEiLz48L3N2Zz4=;" vertex="1" parent="iEyLbZiMmJzwiiPF3CuB-1">
          <mxGeometry x="160" y="310.06" width="17.54" height="20" as="geometry" />
        </mxCell>
        <mxCell id="iEyLbZiMmJzwiiPF3CuB-41" value="" style="dashed=0;outlineConnect=0;html=1;align=center;labelPosition=center;verticalLabelPosition=bottom;verticalAlign=top;shape=mxgraph.weblogos.github" vertex="1" parent="iEyLbZiMmJzwiiPF3CuB-1">
          <mxGeometry x="277.87" y="199" width="40" height="40" as="geometry" />
        </mxCell>
        <mxCell id="iEyLbZiMmJzwiiPF3CuB-42" value="Release v1.0.0" style="text;html=1;align=center;verticalAlign=middle;whiteSpace=wrap;rounded=0;" vertex="1" parent="iEyLbZiMmJzwiiPF3CuB-1">
          <mxGeometry x="275.37" y="239" width="45" height="30" as="geometry" />
        </mxCell>
        <mxCell id="iEyLbZiMmJzwiiPF3CuB-59" value="" style="dashed=0;outlineConnect=0;html=1;align=center;labelPosition=center;verticalLabelPosition=bottom;verticalAlign=top;shape=mxgraph.weblogos.github" vertex="1" parent="iEyLbZiMmJzwiiPF3CuB-1">
          <mxGeometry x="462.49999999999994" y="848.6400000000001" width="40" height="40" as="geometry" />
        </mxCell>
        <mxCell id="iEyLbZiMmJzwiiPF3CuB-60" value="GitHub repo 1.1.0" style="text;html=1;align=center;verticalAlign=middle;whiteSpace=wrap;rounded=0;" vertex="1" parent="iEyLbZiMmJzwiiPF3CuB-1">
          <mxGeometry x="453.71" y="888.48" width="57.57" height="28.4" as="geometry" />
        </mxCell>
        <mxCell id="iEyLbZiMmJzwiiPF3CuB-62" value="" style="dashed=0;outlineConnect=0;html=1;align=center;labelPosition=center;verticalLabelPosition=bottom;verticalAlign=top;shape=mxgraph.weblogos.github" vertex="1" parent="iEyLbZiMmJzwiiPF3CuB-1">
          <mxGeometry x="648.7499999999999" y="849.44" width="40" height="40" as="geometry" />
        </mxCell>
        <mxCell id="iEyLbZiMmJzwiiPF3CuB-63" value="GitHub repo 2.0.0" style="text;html=1;align=center;verticalAlign=middle;whiteSpace=wrap;rounded=0;" vertex="1" parent="iEyLbZiMmJzwiiPF3CuB-1">
          <mxGeometry x="637.59" y="890.08" width="62.29" height="28.4" as="geometry" />
        </mxCell>
        <mxCell id="iEyLbZiMmJzwiiPF3CuB-64" value="TF Team 1.0.0" style="text;html=1;align=center;verticalAlign=middle;whiteSpace=wrap;rounded=0;" vertex="1" parent="iEyLbZiMmJzwiiPF3CuB-1">
          <mxGeometry x="300" y="687.17" width="80" height="12.83" as="geometry" />
        </mxCell>
        <mxCell id="iEyLbZiMmJzwiiPF3CuB-65" value="" style="shape=image;verticalLabelPosition=bottom;verticalAlign=top;imageAspect=0;aspect=fixed;image=data:image/svg+xml,PHN2ZyB4bWxucz0iaHR0cDovL3d3dy53My5vcmcvMjAwMC9zdmciIHZpZXdCb3g9IjAgNy41IDUwIDU3IiBoZWlnaHQ9IjU3IiB3aWR0aD0iNTAiIGlkPSJMb2dvcyI+PGRlZnM+PHN0eWxlPi5jbHMtMXtmaWxsOiM3YjQyYmM7ZmlsbC1ydWxlOmV2ZW5vZGQ7c3Ryb2tlLXdpZHRoOjBweDt9PC9zdHlsZT48L2RlZnM+PHBhdGggZD0iTTE3LjMsMTcuNWwxNS41LDl2MThsLTE1LjUtOXYtMThaIiBjbGFzcz0iY2xzLTEiLz48cGF0aCBkPSJNMzQuNSwyNi41djE4bDE1LjUtOXYtMThsLTE1LjUsOVoiIGNsYXNzPSJjbHMtMSIvPjxwYXRoIGQ9Ik0wLDcuNXYxOGwxNS41LDl2LTE4TDAsNy41WiIgY2xhc3M9ImNscy0xIi8+PHBhdGggZD0iTTE3LjMsNTUuNWwxNS41LDl2LTE4bC0xNS41LTl2MThaIiBjbGFzcz0iY2xzLTEiLz48L3N2Zz4=;" vertex="1" parent="iEyLbZiMmJzwiiPF3CuB-1">
          <mxGeometry x="320" y="641.57" width="40" height="45.6" as="geometry" />
        </mxCell>
        <mxCell id="iEyLbZiMmJzwiiPF3CuB-66" value="TF Team 1.1.0" style="text;html=1;align=center;verticalAlign=middle;whiteSpace=wrap;rounded=0;" vertex="1" parent="iEyLbZiMmJzwiiPF3CuB-1">
          <mxGeometry x="482.51" y="686.85" width="80" height="13.15" as="geometry" />
        </mxCell>
        <mxCell id="iEyLbZiMmJzwiiPF3CuB-69" value="" style="shape=image;verticalLabelPosition=bottom;verticalAlign=top;imageAspect=0;aspect=fixed;image=data:image/svg+xml,PHN2ZyB4bWxucz0iaHR0cDovL3d3dy53My5vcmcvMjAwMC9zdmciIHZpZXdCb3g9IjAgNy41IDUwIDU3IiBoZWlnaHQ9IjU3IiB3aWR0aD0iNTAiIGlkPSJMb2dvcyI+PGRlZnM+PHN0eWxlPi5jbHMtMXtmaWxsOiM3YjQyYmM7ZmlsbC1ydWxlOmV2ZW5vZGQ7c3Ryb2tlLXdpZHRoOjBweDt9PC9zdHlsZT48L2RlZnM+PHBhdGggZD0iTTE3LjMsMTcuNWwxNS41LDl2MThsLTE1LjUtOXYtMThaIiBjbGFzcz0iY2xzLTEiLz48cGF0aCBkPSJNMzQuNSwyNi41djE4bDE1LjUtOXYtMThsLTE1LjUsOVoiIGNsYXNzPSJjbHMtMSIvPjxwYXRoIGQ9Ik0wLDcuNXYxOGwxNS41LDl2LTE4TDAsNy41WiIgY2xhc3M9ImNscy0xIi8+PHBhdGggZD0iTTE3LjMsNTUuNWwxNS41LDl2LTE4bC0xNS41LTl2MThaIiBjbGFzcz0iY2xzLTEiLz48L3N2Zz4=;" vertex="1" parent="iEyLbZiMmJzwiiPF3CuB-1">
          <mxGeometry x="502.51" y="641.25" width="40" height="45.6" as="geometry" />
        </mxCell>
        <mxCell id="iEyLbZiMmJzwiiPF3CuB-72" value="TF Team 2.0.0" style="text;html=1;align=center;verticalAlign=middle;whiteSpace=wrap;rounded=0;" vertex="1" parent="iEyLbZiMmJzwiiPF3CuB-1">
          <mxGeometry x="671.24" y="687.9699999999999" width="80" height="12.83" as="geometry" />
        </mxCell>
        <mxCell id="iEyLbZiMmJzwiiPF3CuB-75" value="" style="shape=image;verticalLabelPosition=bottom;verticalAlign=top;imageAspect=0;aspect=fixed;image=data:image/svg+xml,PHN2ZyB4bWxucz0iaHR0cDovL3d3dy53My5vcmcvMjAwMC9zdmciIHZpZXdCb3g9IjAgNy41IDUwIDU3IiBoZWlnaHQ9IjU3IiB3aWR0aD0iNTAiIGlkPSJMb2dvcyI+PGRlZnM+PHN0eWxlPi5jbHMtMXtmaWxsOiM3YjQyYmM7ZmlsbC1ydWxlOmV2ZW5vZGQ7c3Ryb2tlLXdpZHRoOjBweDt9PC9zdHlsZT48L2RlZnM+PHBhdGggZD0iTTE3LjMsMTcuNWwxNS41LDl2MThsLTE1LjUtOXYtMThaIiBjbGFzcz0iY2xzLTEiLz48cGF0aCBkPSJNMzQuNSwyNi41djE4bDE1LjUtOXYtMThsLTE1LjUsOVoiIGNsYXNzPSJjbHMtMSIvPjxwYXRoIGQ9Ik0wLDcuNXYxOGwxNS41LDl2LTE4TDAsNy41WiIgY2xhc3M9ImNscy0xIi8+PHBhdGggZD0iTTE3LjMsNTUuNWwxNS41LDl2LTE4bC0xNS41LTl2MThaIiBjbGFzcz0iY2xzLTEiLz48L3N2Zz4=;" vertex="1" parent="iEyLbZiMmJzwiiPF3CuB-1">
          <mxGeometry x="691.24" y="642.37" width="40" height="45.6" as="geometry" />
        </mxCell>
        <mxCell id="iEyLbZiMmJzwiiPF3CuB-76" style="edgeStyle=orthogonalEdgeStyle;rounded=0;orthogonalLoop=1;jettySize=auto;html=1;exitX=0.5;exitY=1;exitDx=0;exitDy=0;" edge="1" parent="iEyLbZiMmJzwiiPF3CuB-1" source="iEyLbZiMmJzwiiPF3CuB-96" target="iEyLbZiMmJzwiiPF3CuB-92">
          <mxGeometry relative="1" as="geometry">
            <mxPoint x="340.5" y="880" as="sourcePoint" />
            <Array as="points" />
            <mxPoint x="460" y="1067.000454535124" as="targetPoint" />
          </mxGeometry>
        </mxCell>
        <mxCell id="iEyLbZiMmJzwiiPF3CuB-77" value="TF Team Default Email Notifications" style="text;html=1;align=center;verticalAlign=middle;whiteSpace=wrap;rounded=0;" vertex="1" parent="iEyLbZiMmJzwiiPF3CuB-1">
          <mxGeometry x="300" y="775.6" width="80" height="44.4" as="geometry" />
        </mxCell>
        <mxCell id="iEyLbZiMmJzwiiPF3CuB-78" style="edgeStyle=orthogonalEdgeStyle;rounded=0;orthogonalLoop=1;jettySize=auto;html=1;entryX=0.5;entryY=1;entryDx=0;entryDy=0;" edge="1" parent="iEyLbZiMmJzwiiPF3CuB-1" source="iEyLbZiMmJzwiiPF3CuB-79" target="iEyLbZiMmJzwiiPF3CuB-64">
          <mxGeometry relative="1" as="geometry" />
        </mxCell>
        <mxCell id="iEyLbZiMmJzwiiPF3CuB-79" value="" style="shape=image;verticalLabelPosition=bottom;verticalAlign=top;imageAspect=0;aspect=fixed;image=data:image/svg+xml,PHN2ZyB4bWxucz0iaHR0cDovL3d3dy53My5vcmcvMjAwMC9zdmciIHZpZXdCb3g9IjAgNy41IDUwIDU3IiBoZWlnaHQ9IjU3IiB3aWR0aD0iNTAiIGlkPSJMb2dvcyI+PGRlZnM+PHN0eWxlPi5jbHMtMXtmaWxsOiM3YjQyYmM7ZmlsbC1ydWxlOmV2ZW5vZGQ7c3Ryb2tlLXdpZHRoOjBweDt9PC9zdHlsZT48L2RlZnM+PHBhdGggZD0iTTE3LjMsMTcuNWwxNS41LDl2MThsLTE1LjUtOXYtMThaIiBjbGFzcz0iY2xzLTEiLz48cGF0aCBkPSJNMzQuNSwyNi41djE4bDE1LjUtOXYtMThsLTE1LjUsOVoiIGNsYXNzPSJjbHMtMSIvPjxwYXRoIGQ9Ik0wLDcuNXYxOGwxNS41LDl2LTE4TDAsNy41WiIgY2xhc3M9ImNscy0xIi8+PHBhdGggZD0iTTE3LjMsNTUuNWwxNS41LDl2LTE4bC0xNS41LTl2MThaIiBjbGFzcz0iY2xzLTEiLz48L3N2Zz4=;" vertex="1" parent="iEyLbZiMmJzwiiPF3CuB-1">
          <mxGeometry x="320" y="730" width="40" height="45.6" as="geometry" />
        </mxCell>
        <mxCell id="iEyLbZiMmJzwiiPF3CuB-80" value="TF Team Default Email Notifications" style="text;html=1;align=center;verticalAlign=middle;whiteSpace=wrap;rounded=0;" vertex="1" parent="iEyLbZiMmJzwiiPF3CuB-1">
          <mxGeometry x="482.51" y="775.6" width="80" height="44.4" as="geometry" />
        </mxCell>
        <mxCell id="iEyLbZiMmJzwiiPF3CuB-81" style="edgeStyle=orthogonalEdgeStyle;rounded=0;orthogonalLoop=1;jettySize=auto;html=1;entryX=0.5;entryY=1;entryDx=0;entryDy=0;" edge="1" parent="iEyLbZiMmJzwiiPF3CuB-1" source="iEyLbZiMmJzwiiPF3CuB-82" target="iEyLbZiMmJzwiiPF3CuB-66">
          <mxGeometry relative="1" as="geometry" />
        </mxCell>
        <mxCell id="iEyLbZiMmJzwiiPF3CuB-82" value="" style="shape=image;verticalLabelPosition=bottom;verticalAlign=top;imageAspect=0;aspect=fixed;image=data:image/svg+xml,PHN2ZyB4bWxucz0iaHR0cDovL3d3dy53My5vcmcvMjAwMC9zdmciIHZpZXdCb3g9IjAgNy41IDUwIDU3IiBoZWlnaHQ9IjU3IiB3aWR0aD0iNTAiIGlkPSJMb2dvcyI+PGRlZnM+PHN0eWxlPi5jbHMtMXtmaWxsOiM3YjQyYmM7ZmlsbC1ydWxlOmV2ZW5vZGQ7c3Ryb2tlLXdpZHRoOjBweDt9PC9zdHlsZT48L2RlZnM+PHBhdGggZD0iTTE3LjMsMTcuNWwxNS41LDl2MThsLTE1LjUtOXYtMThaIiBjbGFzcz0iY2xzLTEiLz48cGF0aCBkPSJNMzQuNSwyNi41djE4bDE1LjUtOXYtMThsLTE1LjUsOVoiIGNsYXNzPSJjbHMtMSIvPjxwYXRoIGQ9Ik0wLDcuNXYxOGwxNS41LDl2LTE4TDAsNy41WiIgY2xhc3M9ImNscy0xIi8+PHBhdGggZD0iTTE3LjMsNTUuNWwxNS41LDl2LTE4bC0xNS41LTl2MThaIiBjbGFzcz0iY2xzLTEiLz48L3N2Zz4=;" vertex="1" parent="iEyLbZiMmJzwiiPF3CuB-1">
          <mxGeometry x="502.51" y="730" width="40" height="45.6" as="geometry" />
        </mxCell>
        <mxCell id="iEyLbZiMmJzwiiPF3CuB-83" value="TF Team Default Email Notifications" style="text;html=1;align=center;verticalAlign=middle;whiteSpace=wrap;rounded=0;" vertex="1" parent="iEyLbZiMmJzwiiPF3CuB-1">
          <mxGeometry x="671.24" y="776.4" width="80" height="43.6" as="geometry" />
        </mxCell>
        <mxCell id="iEyLbZiMmJzwiiPF3CuB-84" style="edgeStyle=orthogonalEdgeStyle;rounded=0;orthogonalLoop=1;jettySize=auto;html=1;entryX=0.5;entryY=1;entryDx=0;entryDy=0;" edge="1" parent="iEyLbZiMmJzwiiPF3CuB-1" source="iEyLbZiMmJzwiiPF3CuB-85" target="iEyLbZiMmJzwiiPF3CuB-72">
          <mxGeometry relative="1" as="geometry" />
        </mxCell>
        <mxCell id="iEyLbZiMmJzwiiPF3CuB-85" value="" style="shape=image;verticalLabelPosition=bottom;verticalAlign=top;imageAspect=0;aspect=fixed;image=data:image/svg+xml,PHN2ZyB4bWxucz0iaHR0cDovL3d3dy53My5vcmcvMjAwMC9zdmciIHZpZXdCb3g9IjAgNy41IDUwIDU3IiBoZWlnaHQ9IjU3IiB3aWR0aD0iNTAiIGlkPSJMb2dvcyI+PGRlZnM+PHN0eWxlPi5jbHMtMXtmaWxsOiM3YjQyYmM7ZmlsbC1ydWxlOmV2ZW5vZGQ7c3Ryb2tlLXdpZHRoOjBweDt9PC9zdHlsZT48L2RlZnM+PHBhdGggZD0iTTE3LjMsMTcuNWwxNS41LDl2MThsLTE1LjUtOXYtMThaIiBjbGFzcz0iY2xzLTEiLz48cGF0aCBkPSJNMzQuNSwyNi41djE4bDE1LjUtOXYtMThsLTE1LjUsOVoiIGNsYXNzPSJjbHMtMSIvPjxwYXRoIGQ9Ik0wLDcuNXYxOGwxNS41LDl2LTE4TDAsNy41WiIgY2xhc3M9ImNscy0xIi8+PHBhdGggZD0iTTE3LjMsNTUuNWwxNS41LDl2LTE4bC0xNS41LTl2MThaIiBjbGFzcz0iY2xzLTEiLz48L3N2Zz4=;" vertex="1" parent="iEyLbZiMmJzwiiPF3CuB-1">
          <mxGeometry x="691.24" y="730.8" width="40" height="45.6" as="geometry" />
        </mxCell>
        <mxCell id="iEyLbZiMmJzwiiPF3CuB-86" value="AWS Account" style="points=[[0,0],[0.25,0],[0.5,0],[0.75,0],[1,0],[1,0.25],[1,0.5],[1,0.75],[1,1],[0.75,1],[0.5,1],[0.25,1],[0,1],[0,0.75],[0,0.5],[0,0.25]];outlineConnect=0;gradientColor=none;html=1;whiteSpace=wrap;fontSize=12;fontStyle=0;container=1;pointerEvents=0;collapsible=0;recursiveResize=0;shape=mxgraph.aws4.group;grIcon=mxgraph.aws4.group_account;strokeColor=#CD2264;fillColor=none;verticalAlign=top;align=left;spacingLeft=30;fontColor=#CD2264;dashed=0;" vertex="1" parent="iEyLbZiMmJzwiiPF3CuB-1">
          <mxGeometry x="40" y="848.48" width="130.5" height="220.32" as="geometry" />
        </mxCell>
        <mxCell id="iEyLbZiMmJzwiiPF3CuB-87" value="" style="sketch=0;outlineConnect=0;fontColor=#232F3E;gradientColor=none;fillColor=#DD344C;strokeColor=none;dashed=0;verticalLabelPosition=bottom;verticalAlign=top;align=center;html=1;fontSize=12;fontStyle=0;aspect=fixed;pointerEvents=1;shape=mxgraph.aws4.role;" vertex="1" parent="iEyLbZiMmJzwiiPF3CuB-86">
          <mxGeometry x="51" y="67.32000000000005" width="40" height="22.56" as="geometry" />
        </mxCell>
        <mxCell id="iEyLbZiMmJzwiiPF3CuB-88" value="IAM Role" style="text;html=1;align=center;verticalAlign=middle;whiteSpace=wrap;rounded=0;" vertex="1" parent="iEyLbZiMmJzwiiPF3CuB-86">
          <mxGeometry x="41" y="89.88000000000022" width="60" height="30" as="geometry" />
        </mxCell>
        <mxCell id="iEyLbZiMmJzwiiPF3CuB-89" value="" style="sketch=0;points=[[0,0,0],[0.25,0,0],[0.5,0,0],[0.75,0,0],[1,0,0],[0,1,0],[0.25,1,0],[0.5,1,0],[0.75,1,0],[1,1,0],[0,0.25,0],[0,0.5,0],[0,0.75,0],[1,0.25,0],[1,0.5,0],[1,0.75,0]];outlineConnect=0;fontColor=#232F3E;fillColor=#DD344C;strokeColor=#ffffff;dashed=0;verticalLabelPosition=bottom;verticalAlign=top;align=center;html=1;fontSize=12;fontStyle=0;aspect=fixed;shape=mxgraph.aws4.resourceIcon;resIcon=mxgraph.aws4.identity_and_access_management;" vertex="1" parent="iEyLbZiMmJzwiiPF3CuB-86">
          <mxGeometry x="51" y="147.32000000000005" width="40" height="40" as="geometry" />
        </mxCell>
        <mxCell id="iEyLbZiMmJzwiiPF3CuB-90" value="Identity Provider" style="text;html=1;align=center;verticalAlign=middle;whiteSpace=wrap;rounded=0;" vertex="1" parent="iEyLbZiMmJzwiiPF3CuB-86">
          <mxGeometry x="41" y="187.32000000000005" width="60" height="31.28" as="geometry" />
        </mxCell>
        <mxCell id="iEyLbZiMmJzwiiPF3CuB-91" style="edgeStyle=orthogonalEdgeStyle;rounded=0;orthogonalLoop=1;jettySize=auto;html=1;entryX=0.5;entryY=1;entryDx=0;entryDy=0;" edge="1" parent="iEyLbZiMmJzwiiPF3CuB-86" source="iEyLbZiMmJzwiiPF3CuB-89" target="iEyLbZiMmJzwiiPF3CuB-88">
          <mxGeometry relative="1" as="geometry">
            <mxPoint x="71" y="117.32000000000005" as="targetPoint" />
          </mxGeometry>
        </mxCell>
        <mxCell id="iEyLbZiMmJzwiiPF3CuB-92" value="" style="sketch=0;outlineConnect=0;fontColor=#232F3E;gradientColor=none;fillColor=#DD344C;strokeColor=none;dashed=0;verticalLabelPosition=bottom;verticalAlign=top;align=center;html=1;fontSize=12;fontStyle=0;aspect=fixed;shape=mxgraph.aws4.email;" vertex="1" parent="iEyLbZiMmJzwiiPF3CuB-1">
          <mxGeometry x="405.55" y="853.64" width="33.91" height="30" as="geometry" />
        </mxCell>
        <mxCell id="iEyLbZiMmJzwiiPF3CuB-93" value="Email" style="text;html=1;align=center;verticalAlign=middle;whiteSpace=wrap;rounded=0;" vertex="1" parent="iEyLbZiMmJzwiiPF3CuB-1">
          <mxGeometry x="401.28" y="883.64" width="42.43" height="20" as="geometry" />
        </mxCell>
        <mxCell id="iEyLbZiMmJzwiiPF3CuB-94" style="edgeStyle=orthogonalEdgeStyle;rounded=0;orthogonalLoop=1;jettySize=auto;html=1;entryX=1;entryY=0.5;entryDx=0;entryDy=0;" edge="1" parent="iEyLbZiMmJzwiiPF3CuB-1" source="iEyLbZiMmJzwiiPF3CuB-95" target="iEyLbZiMmJzwiiPF3CuB-65">
          <mxGeometry relative="1" as="geometry" />
        </mxCell>
        <mxCell id="iEyLbZiMmJzwiiPF3CuB-95" value="" style="shape=image;verticalLabelPosition=bottom;verticalAlign=top;imageAspect=0;aspect=fixed;image=data:image/svg+xml,PHN2ZyB4bWxucz0iaHR0cDovL3d3dy53My5vcmcvMjAwMC9zdmciIHZpZXdCb3g9IjAgNy41IDUwIDU3IiBoZWlnaHQ9IjU3IiB3aWR0aD0iNTAiIGlkPSJMb2dvcyI+PGRlZnM+PHN0eWxlPi5jbHMtMXtmaWxsOiM3YjQyYmM7ZmlsbC1ydWxlOmV2ZW5vZGQ7c3Ryb2tlLXdpZHRoOjBweDt9PC9zdHlsZT48L2RlZnM+PHBhdGggZD0iTTE3LjMsMTcuNWwxNS41LDl2MThsLTE1LjUtOXYtMThaIiBjbGFzcz0iY2xzLTEiLz48cGF0aCBkPSJNMzQuNSwyNi41djE4bDE1LjUtOXYtMThsLTE1LjUsOVoiIGNsYXNzPSJjbHMtMSIvPjxwYXRoIGQ9Ik0wLDcuNXYxOGwxNS41LDl2LTE4TDAsNy41WiIgY2xhc3M9ImNscy0xIi8+PHBhdGggZD0iTTE3LjMsNTUuNWwxNS41LDl2LTE4bC0xNS41LTl2MThaIiBjbGFzcz0iY2xzLTEiLz48L3N2Zz4=;" vertex="1" parent="iEyLbZiMmJzwiiPF3CuB-1">
          <mxGeometry x="402.5" y="641.57" width="40" height="45.6" as="geometry" />
        </mxCell>
        <mxCell id="iEyLbZiMmJzwiiPF3CuB-96" value="TF User" style="text;html=1;align=center;verticalAlign=middle;whiteSpace=wrap;rounded=0;" vertex="1" parent="iEyLbZiMmJzwiiPF3CuB-1">
          <mxGeometry x="382.51" y="687.17" width="80" height="12.83" as="geometry" />
        </mxCell>
        <mxCell id="iEyLbZiMmJzwiiPF3CuB-97" style="edgeStyle=orthogonalEdgeStyle;rounded=0;orthogonalLoop=1;jettySize=auto;html=1;entryX=1;entryY=0.5;entryDx=0;entryDy=0;" edge="1" parent="iEyLbZiMmJzwiiPF3CuB-1" source="iEyLbZiMmJzwiiPF3CuB-98" target="iEyLbZiMmJzwiiPF3CuB-69">
          <mxGeometry relative="1" as="geometry" />
        </mxCell>
        <mxCell id="iEyLbZiMmJzwiiPF3CuB-98" value="" style="shape=image;verticalLabelPosition=bottom;verticalAlign=top;imageAspect=0;aspect=fixed;image=data:image/svg+xml,PHN2ZyB4bWxucz0iaHR0cDovL3d3dy53My5vcmcvMjAwMC9zdmciIHZpZXdCb3g9IjAgNy41IDUwIDU3IiBoZWlnaHQ9IjU3IiB3aWR0aD0iNTAiIGlkPSJMb2dvcyI+PGRlZnM+PHN0eWxlPi5jbHMtMXtmaWxsOiM3YjQyYmM7ZmlsbC1ydWxlOmV2ZW5vZGQ7c3Ryb2tlLXdpZHRoOjBweDt9PC9zdHlsZT48L2RlZnM+PHBhdGggZD0iTTE3LjMsMTcuNWwxNS41LDl2MThsLTE1LjUtOXYtMThaIiBjbGFzcz0iY2xzLTEiLz48cGF0aCBkPSJNMzQuNSwyNi41djE4bDE1LjUtOXYtMThsLTE1LjUsOVoiIGNsYXNzPSJjbHMtMSIvPjxwYXRoIGQ9Ik0wLDcuNXYxOGwxNS41LDl2LTE4TDAsNy41WiIgY2xhc3M9ImNscy0xIi8+PHBhdGggZD0iTTE3LjMsNTUuNWwxNS41LDl2LTE4bC0xNS41LTl2MThaIiBjbGFzcz0iY2xzLTEiLz48L3N2Zz4=;" vertex="1" parent="iEyLbZiMmJzwiiPF3CuB-1">
          <mxGeometry x="591.23" y="641.57" width="40" height="45.6" as="geometry" />
        </mxCell>
        <mxCell id="iEyLbZiMmJzwiiPF3CuB-99" style="edgeStyle=orthogonalEdgeStyle;rounded=0;orthogonalLoop=1;jettySize=auto;html=1;" edge="1" parent="iEyLbZiMmJzwiiPF3CuB-1" source="iEyLbZiMmJzwiiPF3CuB-100" target="iEyLbZiMmJzwiiPF3CuB-101">
          <mxGeometry relative="1" as="geometry" />
        </mxCell>
        <mxCell id="iEyLbZiMmJzwiiPF3CuB-100" value="TF User" style="text;html=1;align=center;verticalAlign=middle;whiteSpace=wrap;rounded=0;" vertex="1" parent="iEyLbZiMmJzwiiPF3CuB-1">
          <mxGeometry x="571.24" y="687.17" width="80" height="12.83" as="geometry" />
        </mxCell>
        <mxCell id="iEyLbZiMmJzwiiPF3CuB-101" value="" style="sketch=0;outlineConnect=0;fontColor=#232F3E;gradientColor=none;fillColor=#DD344C;strokeColor=none;dashed=0;verticalLabelPosition=bottom;verticalAlign=top;align=center;html=1;fontSize=12;fontStyle=0;aspect=fixed;shape=mxgraph.aws4.email;" vertex="1" parent="iEyLbZiMmJzwiiPF3CuB-1">
          <mxGeometry x="594.29" y="853.64" width="33.91" height="30" as="geometry" />
        </mxCell>
        <mxCell id="iEyLbZiMmJzwiiPF3CuB-102" value="Email" style="text;html=1;align=center;verticalAlign=middle;whiteSpace=wrap;rounded=0;" vertex="1" parent="iEyLbZiMmJzwiiPF3CuB-1">
          <mxGeometry x="590.02" y="883.64" width="42.43" height="20" as="geometry" />
        </mxCell>
        <mxCell id="iEyLbZiMmJzwiiPF3CuB-103" style="edgeStyle=orthogonalEdgeStyle;rounded=0;orthogonalLoop=1;jettySize=auto;html=1;entryX=1;entryY=0.5;entryDx=0;entryDy=0;" edge="1" parent="iEyLbZiMmJzwiiPF3CuB-1" source="iEyLbZiMmJzwiiPF3CuB-104" target="iEyLbZiMmJzwiiPF3CuB-75">
          <mxGeometry relative="1" as="geometry" />
        </mxCell>
        <mxCell id="iEyLbZiMmJzwiiPF3CuB-104" value="" style="shape=image;verticalLabelPosition=bottom;verticalAlign=top;imageAspect=0;aspect=fixed;image=data:image/svg+xml,PHN2ZyB4bWxucz0iaHR0cDovL3d3dy53My5vcmcvMjAwMC9zdmciIHZpZXdCb3g9IjAgNy41IDUwIDU3IiBoZWlnaHQ9IjU3IiB3aWR0aD0iNTAiIGlkPSJMb2dvcyI+PGRlZnM+PHN0eWxlPi5jbHMtMXtmaWxsOiM3YjQyYmM7ZmlsbC1ydWxlOmV2ZW5vZGQ7c3Ryb2tlLXdpZHRoOjBweDt9PC9zdHlsZT48L2RlZnM+PHBhdGggZD0iTTE3LjMsMTcuNWwxNS41LDl2MThsLTE1LjUtOXYtMThaIiBjbGFzcz0iY2xzLTEiLz48cGF0aCBkPSJNMzQuNSwyNi41djE4bDE1LjUtOXYtMThsLTE1LjUsOVoiIGNsYXNzPSJjbHMtMSIvPjxwYXRoIGQ9Ik0wLDcuNXYxOGwxNS41LDl2LTE4TDAsNy41WiIgY2xhc3M9ImNscy0xIi8+PHBhdGggZD0iTTE3LjMsNTUuNWwxNS41LDl2LTE4bC0xNS41LTl2MThaIiBjbGFzcz0iY2xzLTEiLz48L3N2Zz4=;" vertex="1" parent="iEyLbZiMmJzwiiPF3CuB-1">
          <mxGeometry x="771.21" y="642.37" width="40" height="45.6" as="geometry" />
        </mxCell>
        <mxCell id="iEyLbZiMmJzwiiPF3CuB-105" style="edgeStyle=orthogonalEdgeStyle;rounded=0;orthogonalLoop=1;jettySize=auto;html=1;" edge="1" parent="iEyLbZiMmJzwiiPF3CuB-1" target="iEyLbZiMmJzwiiPF3CuB-106">
          <mxGeometry relative="1" as="geometry">
            <mxPoint x="790.98" y="699.68" as="sourcePoint" />
          </mxGeometry>
        </mxCell>
        <mxCell id="iEyLbZiMmJzwiiPF3CuB-106" value="" style="sketch=0;outlineConnect=0;fontColor=#232F3E;gradientColor=none;fillColor=#DD344C;strokeColor=none;dashed=0;verticalLabelPosition=bottom;verticalAlign=top;align=center;html=1;fontSize=12;fontStyle=0;aspect=fixed;shape=mxgraph.aws4.email;" vertex="1" parent="iEyLbZiMmJzwiiPF3CuB-1">
          <mxGeometry x="774.26" y="854.4399999999999" width="33.91" height="30" as="geometry" />
        </mxCell>
        <mxCell id="iEyLbZiMmJzwiiPF3CuB-107" value="Email" style="text;html=1;align=center;verticalAlign=middle;whiteSpace=wrap;rounded=0;" vertex="1" parent="iEyLbZiMmJzwiiPF3CuB-1">
          <mxGeometry x="770" y="883.64" width="42.43" height="20" as="geometry" />
        </mxCell>
        <mxCell id="iEyLbZiMmJzwiiPF3CuB-108" value="TF User" style="text;html=1;align=center;verticalAlign=middle;whiteSpace=wrap;rounded=0;" vertex="1" parent="iEyLbZiMmJzwiiPF3CuB-1">
          <mxGeometry x="766.8100000000001" y="686.85" width="48.79" height="12.83" as="geometry" />
        </mxCell>
        <mxCell id="iEyLbZiMmJzwiiPF3CuB-109" style="edgeStyle=orthogonalEdgeStyle;rounded=0;orthogonalLoop=1;jettySize=auto;html=1;entryX=0.5;entryY=1;entryDx=0;entryDy=0;" edge="1" parent="iEyLbZiMmJzwiiPF3CuB-1" source="iEyLbZiMmJzwiiPF3CuB-110" target="iEyLbZiMmJzwiiPF3CuB-26">
          <mxGeometry relative="1" as="geometry" />
        </mxCell>
        <mxCell id="iEyLbZiMmJzwiiPF3CuB-110" value="main.tf" style="rounded=0;whiteSpace=wrap;html=1;" vertex="1" parent="iEyLbZiMmJzwiiPF3CuB-1">
          <mxGeometry x="266.43" y="950" width="70" height="30" as="geometry" />
        </mxCell>
        <mxCell id="iEyLbZiMmJzwiiPF3CuB-111" style="edgeStyle=orthogonalEdgeStyle;rounded=0;orthogonalLoop=1;jettySize=auto;html=1;entryX=0.5;entryY=1;entryDx=0;entryDy=0;" edge="1" parent="iEyLbZiMmJzwiiPF3CuB-1" source="iEyLbZiMmJzwiiPF3CuB-112" target="iEyLbZiMmJzwiiPF3CuB-60">
          <mxGeometry relative="1" as="geometry" />
        </mxCell>
        <mxCell id="iEyLbZiMmJzwiiPF3CuB-112" value="main.tf" style="rounded=0;whiteSpace=wrap;html=1;" vertex="1" parent="iEyLbZiMmJzwiiPF3CuB-1">
          <mxGeometry x="447.51" y="950" width="70" height="30" as="geometry" />
        </mxCell>
        <mxCell id="iEyLbZiMmJzwiiPF3CuB-113" style="edgeStyle=orthogonalEdgeStyle;rounded=0;orthogonalLoop=1;jettySize=auto;html=1;entryX=0.5;entryY=1;entryDx=0;entryDy=0;" edge="1" parent="iEyLbZiMmJzwiiPF3CuB-1" source="iEyLbZiMmJzwiiPF3CuB-114" target="iEyLbZiMmJzwiiPF3CuB-63">
          <mxGeometry relative="1" as="geometry" />
        </mxCell>
        <mxCell id="iEyLbZiMmJzwiiPF3CuB-114" value="main.tf" style="rounded=0;whiteSpace=wrap;html=1;" vertex="1" parent="iEyLbZiMmJzwiiPF3CuB-1">
          <mxGeometry x="633.75" y="950" width="70" height="30" as="geometry" />
        </mxCell>
      </root>
    </mxGraphModel>
  </diagram>
</mxfile>
